<?xml version="1.0" encoding="UTF-8" standalone="no"?>
<!DOCTYPE svg PUBLIC "-//W3C//DTD SVG 1.1//EN" "http://www.w3.org/Graphics/SVG/1.1/DTD/svg11.dtd">
<svg width="100%" height="100%" viewBox="0 0 1964 2001" version="1.1" xmlns="http://www.w3.org/2000/svg" xmlns:xlink="http://www.w3.org/1999/xlink" xml:space="preserve" xmlns:serif="http://www.serif.com/" style="fill-rule:evenodd;clip-rule:evenodd;stroke-linejoin:round;stroke-miterlimit:2;">
    <g transform="matrix(1,0,0,1,-5752,-6172.71)">
        <g transform="matrix(4.16667,0,0,4.16667,0,0)">
            <path d="M1657.3,1961.6C1655,1961.6 1653.54,1961.45 1653.15,1961.41L1643.25,1960.31C1639.12,1961.09 1634.92,1961.48 1630.67,1961.48C1614.79,1961.48 1603.6,1955.97 1602.38,1955.34L1580.09,1943.88L1581.94,1943.05C1580.91,1942.36 1580.27,1941.85 1580.04,1941.66L1567.27,1931.16L1580.64,1922.5L1572.77,1916.88C1556.51,1905.27 1547.88,1886.94 1547.8,1863.88C1547.76,1851.98 1550.04,1841.83 1551.37,1836.92C1550.26,1832.01 1546.22,1818.97 1533.26,1810.63C1522.77,1803.88 1510.86,1802.46 1502.72,1802.46C1497.82,1802.46 1494.54,1803 1494.51,1803L1493.09,1803.26L1491.6,1803.15C1469.94,1801.59 1458.02,1795.52 1453,1792.21C1433.56,1785.16 1413.62,1756.99 1411.36,1753.73L1397.4,1733.58L1414.01,1737.87L1413.84,1737.23C1406.59,1729.93 1400.9,1721.62 1396.91,1712.49C1391.45,1700.01 1391.03,1690.2 1390.99,1689.12L1390.34,1665.42L1390.3,1663.92L1390.23,1661.2L1380.48,1654.84C1380.48,1654.84 1400.01,1646.81 1407.06,1643.48C1408.17,1642.95 1408.97,1642.55 1409.34,1642.31C1406.15,1639.91 1404.27,1637.9 1403.89,1637.49L1392.09,1624.47L1408.46,1618.1C1421.79,1612.91 1432.03,1606.51 1439.76,1598.55C1442.86,1595.37 1446.28,1592.31 1449.2,1589.84C1446.11,1578.29 1444.94,1566.49 1444.53,1560.8C1437.34,1547.39 1435.12,1534.46 1434.55,1525.82C1434.17,1520.15 1433.89,1506.26 1439.36,1499.62C1444.99,1492.79 1452.7,1492.79 1455.61,1492.79C1459.65,1492.79 1464.77,1493.36 1474.02,1494.57C1485.94,1496.12 1501.42,1499.7 1511.66,1502.07C1513.55,1502.51 1516.11,1503.1 1517.8,1503.47C1521.83,1502.46 1532.48,1499.63 1551.25,1494.03C1579.61,1485.57 1604.49,1481.45 1627.31,1481.45C1634.35,1481.45 1641.21,1481.86 1647.7,1482.67C1677.2,1486.36 1699.36,1499.34 1706.88,1504.26C1719.02,1505.58 1729.4,1508.03 1737.09,1510.29C1737.35,1509.63 1737.64,1509.02 1737.94,1508.48C1740.3,1504.36 1744.69,1501.99 1749.99,1501.99C1758.88,1501.99 1773.57,1508.51 1785.69,1526.87C1794.77,1540.62 1798.22,1554.19 1799.53,1562.74C1802.26,1564.03 1804.51,1565.68 1806.25,1567.68C1807.38,1568.99 1809.48,1571.41 1814.71,1587.04C1815.5,1589.39 1819.43,1601.28 1819.72,1604.78C1819.93,1607.32 1819.65,1610.56 1814.44,1623.4C1825.58,1644.22 1826.1,1647.34 1826.39,1649.07C1826.82,1651.64 1826.67,1654.54 1825.96,1657.73C1832.68,1666.57 1844.89,1685.64 1849.22,1712.11C1854.8,1746.15 1850.01,1758.94 1847.7,1762.85C1847.7,1762.85 1845.4,1767.88 1844.86,1772.13C1844.31,1776.39 1846.1,1786.7 1846.1,1786.7C1846.1,1786.7 1836.93,1787.5 1829.96,1783.6C1827.02,1788.46 1823.82,1791.89 1821.69,1793.89C1805.07,1821.98 1782.04,1823.25 1779.43,1823.3L1763.83,1823.61C1752.09,1835.3 1744.67,1848.96 1741.74,1864.3C1739.21,1877.54 1741.12,1887.47 1741.2,1887.89L1742.09,1891.93L1740.27,1895.71C1731.13,1914.5 1718.79,1925.39 1713.38,1929.54C1705.68,1941.81 1695.45,1950.77 1682.95,1956.18C1672.08,1960.89 1662.21,1961.6 1657.3,1961.6Z" style="fill:rgb(79,187,235);fill-rule:nonzero;"/>
        </g>
        <g transform="matrix(4.16667,0,0,4.16667,0,0)">
            <path d="M1657.3,1952.48C1655.41,1952.48 1654.29,1952.36 1654.17,1952.35L1648.1,1951.67L1651.03,1948.69C1644.52,1951.13 1637.71,1952.37 1630.67,1952.37C1616.7,1952.37 1606.95,1947.44 1606.54,1947.23L1601.07,1944.41L1606.68,1941.88C1607.04,1941.71 1607.41,1941.54 1607.79,1941.34L1607.39,1941.34C1594.16,1941.34 1586.16,1934.89 1585.83,1934.62L1582.69,1932.04L1586.1,1929.83C1592.47,1925.71 1596.26,1918.63 1597.83,1915.14C1591.66,1910.67 1587.05,1904.49 1584.16,1899.88C1583.21,1903.87 1582.75,1907.38 1582.74,1907.43L1582.1,1912.34L1578.07,1909.46C1564.3,1899.63 1556.99,1883.86 1556.92,1863.86C1556.88,1850.83 1559.88,1840.12 1560.73,1837.36C1560.2,1833.87 1556.54,1814.77 1538.19,1802.96C1525.84,1795.01 1512.08,1793.34 1502.72,1793.34C1496.87,1793.34 1493.01,1794.01 1492.97,1794.02L1492.61,1794.08L1492.24,1794.06C1470.07,1792.46 1459.55,1785.75 1457.13,1783.98C1439.91,1778.68 1419.55,1749.54 1418.85,1748.54C1418.85,1748.54 1430.19,1751.46 1432.56,1752.05C1425.42,1745.4 1423.82,1739.47 1423.74,1739.13L1422.05,1732.5C1413.33,1724.25 1408.22,1715.61 1405.26,1708.84C1400.41,1697.73 1400.12,1689.22 1400.11,1688.87L1399.8,1677.55L1405.63,1687.25C1405.73,1687.42 1405.83,1687.59 1405.94,1687.76C1405.16,1684.24 1406.83,1676.95 1406.83,1676.95C1405.52,1675.07 1402.95,1670.04 1402.95,1670.04C1402.95,1670.04 1415.01,1666.89 1418.5,1665.33C1410.52,1663.51 1405.29,1660.15 1404.99,1659.96L1400.19,1656.82L1405.52,1654.71C1412.94,1651.77 1421.22,1645.11 1426,1640.92C1416.57,1637.79 1410.92,1631.66 1410.64,1631.36L1407.74,1628.16L1411.77,1626.59C1426.34,1620.92 1437.64,1613.83 1446.3,1604.91C1451.1,1599.97 1456.86,1595.28 1459.69,1593.05C1454.91,1578.96 1453.71,1561.94 1453.49,1558.17C1446.34,1545.62 1444.19,1533.35 1443.65,1525.21C1443.05,1516.24 1444.18,1508.1 1446.39,1505.42C1448.8,1502.5 1451.81,1501.9 1455.61,1501.9C1459.13,1501.9 1464.17,1502.48 1472.84,1503.61C1484.32,1505.11 1499.54,1508.63 1509.61,1510.95C1513.17,1511.78 1516.83,1512.63 1517.95,1512.81C1520.04,1512.37 1531.41,1509.46 1553.85,1502.76C1581.36,1494.56 1605.38,1490.57 1627.31,1490.57C1633.97,1490.57 1640.45,1490.96 1646.57,1491.72C1677.37,1495.57 1699.48,1510.16 1703.68,1513.1C1722.38,1514.87 1736.99,1519.59 1743.51,1522C1744.09,1518.45 1745.08,1514.38 1745.86,1513C1746.58,1511.75 1747.97,1511.11 1749.99,1511.11C1755.33,1511.11 1767.25,1515.49 1778.09,1531.89C1788.65,1547.89 1790.72,1563.51 1791.12,1569.5C1793.64,1570.07 1797.28,1571.26 1799.36,1573.65C1802.42,1577.19 1810.42,1602.9 1810.64,1605.54C1810.79,1607.44 1808.69,1613.62 1804.37,1623.92C1808.02,1630.66 1816.84,1647.19 1817.4,1650.57C1817.89,1653.54 1816.72,1657.39 1815.85,1659.71C1820.41,1665.02 1835.43,1684.34 1840.23,1713.58C1845.71,1747.07 1840.47,1757.17 1839.85,1758.21L1837.18,1762.72L1834.68,1758.11C1834.35,1757.51 1834,1756.91 1833.64,1756.34C1833.72,1763.98 1835.44,1770.99 1835.46,1771.08L1836.58,1775.59L1832.02,1774.71C1829.3,1774.19 1827.15,1773.07 1825.51,1771.86C1822.17,1781.05 1816.29,1786.56 1814.52,1788.07C1800.1,1813.48 1780.1,1814.17 1779.25,1814.19L1772.4,1814.32L1776.98,1809.23C1777.97,1808.13 1778.83,1806.95 1779.56,1805.76C1773.21,1808.89 1767.84,1809.62 1765.59,1809.79C1747.75,1824.26 1736.71,1842.02 1732.78,1862.59C1729.8,1878.2 1732.26,1889.69 1732.29,1889.8L1732.51,1890.81L1732.06,1891.75C1722.67,1911.05 1709.5,1921.15 1706.53,1923.27C1699.72,1934.69 1690.58,1942.94 1679.33,1947.82C1669.97,1951.87 1661.51,1952.48 1657.3,1952.48Z" style="fill:rgb(15,15,39);fill-rule:nonzero;"/>
        </g>
        <g transform="matrix(4.16667,0,0,4.16667,0,0)">
            <path d="M1657.3,1948.66C1656.96,1948.66 1656.65,1948.66 1656.37,1948.65C1660.48,1944.16 1662.68,1940.27 1662.78,1940.1L1661.57,1938.97C1652.04,1945.33 1641.65,1948.55 1630.67,1948.55C1620.81,1948.55 1613.11,1945.87 1609.91,1944.55C1615.5,1941.65 1622.03,1936.63 1622.33,1936.39L1621.53,1934.92C1616.76,1936.65 1612.01,1937.53 1607.39,1937.53C1598.01,1937.53 1591.52,1933.88 1589.2,1932.34C1598.23,1925.89 1602.12,1914.79 1602.29,1914.3L1602.51,1913.66L1601.94,1913.3C1590.79,1906.36 1584.22,1892.12 1584.15,1891.98L1583.33,1890.19L1582.59,1892.01C1580.69,1896.68 1579.59,1902.79 1579.16,1905.52C1564.06,1894.03 1560.79,1876.62 1560.74,1863.89C1560.69,1849.66 1564.53,1838.01 1564.56,1837.89L1564.62,1837.72L1564.6,1837.54C1564.58,1837.31 1562.05,1813.77 1540.26,1799.75C1527.13,1791.3 1512.59,1789.52 1502.72,1789.52C1496.97,1789.52 1493.11,1790.12 1492.41,1790.24C1468.72,1788.51 1459.14,1780.71 1459.04,1780.63L1458.9,1780.52L1458.73,1780.47C1445.78,1776.79 1432.61,1760.88 1427.85,1754.64C1434.24,1756.87 1444.5,1758.05 1445.01,1758.11L1445.5,1756.51C1434.4,1750.57 1429.92,1743.68 1428.28,1740.29C1432.83,1742.46 1437.57,1742.65 1439.07,1742.65C1439.46,1742.65 1439.68,1742.64 1439.68,1742.64L1442.55,1742.49L1440.05,1741.06C1421.87,1730.67 1413.02,1717.01 1408.8,1707.38C1405.96,1700.92 1404.77,1695.35 1404.28,1692.03C1408.54,1697.59 1414.17,1701.38 1414.45,1701.56L1415.57,1700.32C1410.93,1694.68 1409.41,1686.3 1408.96,1682.81C1413.97,1685.37 1420.93,1686.02 1421.26,1686.05L1421.61,1684.4C1414.78,1682.07 1410.2,1675.31 1408.68,1672.77C1418.7,1670.47 1428.52,1664.49 1428.95,1664.23L1431.51,1662.66L1428.5,1662.66C1419.11,1662.66 1411.55,1659.21 1408.52,1657.58C1419.99,1652.41 1432.15,1640.49 1432.68,1639.96L1433.88,1638.79L1432.22,1638.52C1423.09,1637.07 1416.64,1631.79 1414.37,1629.67C1428.88,1623.88 1440.23,1616.64 1449.04,1607.57C1455.34,1601.09 1463.64,1594.83 1463.72,1594.76L1464.23,1594.38L1464.01,1593.79C1458.28,1578.44 1457.28,1557.47 1457.27,1557.26L1457.26,1557.05L1457.15,1556.87C1450.08,1544.75 1447.98,1532.83 1447.46,1524.96C1446.82,1515.26 1448.37,1509.03 1449.34,1507.85C1450.48,1506.47 1451.81,1505.72 1455.61,1505.72C1458.92,1505.72 1463.84,1506.29 1472.35,1507.4C1483.64,1508.87 1499.36,1512.5 1508.75,1514.68C1514.67,1516.05 1517.32,1516.65 1518.04,1516.65L1518.23,1516.64C1519.84,1516.41 1532.65,1513.08 1554.95,1506.42C1582.09,1498.33 1605.76,1494.39 1627.31,1494.39C1633.81,1494.39 1640.13,1494.77 1646.09,1495.51C1678.67,1499.58 1701.87,1516.5 1702.1,1516.67L1702.29,1516.81L1702.53,1516.83C1727.38,1519.06 1745.47,1526.87 1745.65,1526.95L1746.77,1527.44L1746.84,1526.22C1747.02,1522.75 1748.45,1516.43 1749.12,1515.02C1749.24,1514.98 1749.52,1514.93 1749.99,1514.93C1754.25,1514.93 1764.94,1518.91 1774.9,1534C1787.42,1552.97 1787.4,1571.82 1787.4,1572.01L1787.39,1572.77L1788.15,1572.86C1788.21,1572.86 1794.26,1573.61 1796.47,1576.15C1798.83,1578.88 1806.66,1603.79 1806.83,1605.85C1806.95,1607.27 1803.08,1617.17 1800.29,1623.75L1800.13,1624.13L1800.33,1624.49C1803.88,1631.01 1813.18,1648.53 1813.63,1651.2C1814.15,1654.3 1811.64,1659.89 1811.62,1659.95L1811.38,1660.47L1811.78,1660.89C1811.97,1661.09 1831.09,1681.48 1836.46,1714.2C1840.63,1739.67 1838.36,1751 1837.15,1754.76C1834.79,1750.91 1832,1747.95 1831.87,1747.81L1830.72,1746.59L1830.42,1748.25C1828.86,1756.97 1830.67,1767.03 1831.44,1770.64C1826.96,1769.26 1824.84,1765.74 1824.82,1765.7L1823.72,1763.83L1823.26,1765.95C1820.53,1778.49 1811.77,1785.38 1811.68,1785.45L1811.55,1785.56L1811.46,1785.71C1800.7,1805.03 1786.42,1809.22 1781.2,1810.12C1785.34,1804.69 1786.92,1798.5 1786.99,1798.22L1787.61,1795.75L1785.64,1797.35C1775.08,1805.9 1764.58,1806.03 1764.48,1806.03L1764.18,1806.03L1763.95,1806.21C1740.16,1825.18 1731.8,1847.11 1728.98,1862.16C1726.15,1877.26 1728.1,1888.36 1728.5,1890.33C1718.54,1910.62 1703.98,1920.39 1703.83,1920.49L1703.67,1920.59L1703.57,1920.77C1697.15,1931.77 1688.48,1939.69 1677.81,1944.31C1669.08,1948.09 1661.21,1948.66 1657.3,1948.66Z" style="fill:rgb(164,172,176);fill-rule:nonzero;"/>
        </g>
        <g transform="matrix(4.16667,0,0,4.16667,0,0)">
            <path d="M1733.97,1598.99C1726.5,1598.99 1723.95,1597.23 1718.15,1595.22C1716.24,1594.56 1714.26,1594.35 1712.22,1594.35C1710.46,1594.35 1708.67,1594.5 1706.84,1594.66C1705.01,1594.81 1703.15,1594.97 1701.27,1594.97C1699.1,1594.97 1696.89,1594.76 1694.68,1594.12C1686.38,1591.7 1685.22,1588.04 1667.86,1570.32C1650.51,1552.6 1631.5,1547.04 1631.5,1547.04C1623.34,1543.78 1615.45,1541.49 1615.45,1541.49L1605.26,1530.1C1605.26,1530.1 1608.75,1524.19 1631.36,1524.11L1631.72,1524.11C1654.04,1524.11 1660.76,1531.31 1660.76,1531.31C1659.46,1531.16 1658.06,1531.1 1656.67,1531.1C1651.65,1531.1 1646.71,1531.88 1646.71,1531.88C1646.71,1531.88 1654.31,1532.4 1665.12,1536.72C1675.94,1541.05 1685.93,1549.9 1685.93,1549.9C1681.95,1542.21 1673.64,1536.72 1673.64,1536.72C1673.64,1536.72 1680.79,1538.81 1691.21,1549.9C1701.63,1561 1704.11,1567.86 1722.58,1572.97C1727.12,1574.22 1730.47,1574.69 1732.93,1574.69C1740.48,1574.69 1739.74,1570.25 1739.74,1570.25C1747.08,1579.43 1752.03,1597.67 1739.74,1598.72C1737.52,1598.9 1735.62,1598.99 1733.97,1598.99Z" style="fill:rgb(199,204,206);fill-rule:nonzero;"/>
        </g>
        <g transform="matrix(4.16667,0,0,4.16667,0,0)">
            <path d="M1451.33,1676.68C1451.33,1676.68 1465.77,1661.4 1477.36,1648.73C1484.12,1641.34 1492.37,1636.33 1498.06,1633.45C1490.22,1637.08 1477.19,1643.55 1467.41,1650.63C1467.41,1650.63 1486.1,1626.41 1507.95,1612.23C1507.95,1612.23 1495.89,1617 1484.91,1625.51C1484.91,1625.51 1493.08,1615.7 1511.07,1604.23C1529.05,1592.77 1551.76,1584.36 1551.76,1584.36C1551.76,1584.36 1534.57,1593.09 1523.32,1602.17C1523.32,1602.17 1550.56,1589.23 1566.48,1586.45C1566.48,1586.45 1545.9,1600 1526.91,1612.23C1526.91,1612.23 1552.88,1600.95 1570.77,1595.22C1570.77,1595.22 1546.87,1610.16 1534.94,1617.88C1523.01,1625.59 1517.2,1631.44 1517.2,1631.44C1517.2,1631.44 1532.33,1623.83 1552.95,1614.52C1573.57,1605.22 1580.12,1604.57 1580.12,1604.57C1580.12,1604.57 1552.73,1617.75 1542.03,1624.79C1542.03,1624.79 1524.77,1634.9 1511.07,1648.73C1497.36,1662.56 1471.25,1670.62 1471.25,1670.62C1471.25,1670.62 1487.8,1659.5 1494.46,1654.43C1501.13,1649.36 1502.43,1645.2 1502.43,1645.2C1502.43,1645.2 1490.82,1652.75 1474.09,1662.56C1457.36,1672.37 1451.33,1676.68 1451.33,1676.68Z" style="fill:rgb(199,204,206);fill-rule:nonzero;"/>
        </g>
        <g transform="matrix(4.16667,0,0,4.16667,0,0)">
            <path d="M1712.23,1627.32C1712.23,1627.32 1698.44,1622.26 1688.01,1627.32C1677.57,1632.38 1678.89,1635.12 1681.38,1638.03C1683.86,1640.93 1683.95,1642.19 1679.63,1645.46C1675.31,1648.73 1675.92,1655.46 1678.38,1660.15C1680.84,1664.83 1676.92,1661.5 1675.49,1660.15C1674.05,1658.79 1673.71,1649.05 1664.25,1643.82C1654.78,1638.58 1643.78,1641.31 1643.78,1641.31C1643.78,1641.31 1659.67,1632.63 1662.46,1631.88C1665.25,1631.12 1667.36,1627.82 1670.83,1624.57C1674.3,1621.31 1683.16,1617.71 1689.04,1617.88C1694.93,1618.04 1699.56,1615.45 1703.91,1617.88C1708.26,1620.31 1712.22,1623.19 1712.22,1623.19" style="fill:rgb(104,114,118);fill-rule:nonzero;"/>
        </g>
        <g transform="matrix(4.16667,0,0,4.16667,0,0)">
            <path d="M1488.11,1535.54C1488.11,1535.54 1477.11,1529.73 1469.81,1531.88C1469.81,1531.88 1469.06,1540.44 1473.34,1547.04C1473.34,1547.04 1472.58,1539.42 1473.59,1536.72C1473.59,1536.72 1476.4,1546.41 1479.9,1549.9C1483.4,1553.4 1486.16,1555.47 1486.16,1555.47C1486.16,1555.47 1477.36,1552.76 1475.35,1549.9C1475.35,1549.9 1477.99,1558.23 1483.65,1561.68C1489.31,1565.13 1494.46,1564.86 1494.46,1564.86C1494.46,1564.86 1490.69,1558.6 1489.69,1554.87C1488.68,1551.14 1489.18,1547.67 1489.94,1544.88C1490.69,1542.08 1490.19,1540.13 1489.69,1538.59" style="fill:rgb(104,114,118);fill-rule:nonzero;"/>
        </g>
        <g transform="matrix(4.16667,0,0,4.16667,0,0)">
            <path d="M1720.17,1555.24C1720.17,1555.24 1708.76,1553.26 1702.48,1547.04C1696.19,1540.83 1683.44,1527.69 1672.83,1523.32C1662.23,1518.94 1638.32,1511.46 1602.61,1516.33C1566.9,1521.21 1534.96,1538.11 1527.92,1538.59C1520.87,1539.06 1508.11,1533.53 1508.11,1533.53L1515.44,1531.88C1515.44,1531.88 1498.99,1529.05 1483.4,1525C1467.8,1520.96 1463.02,1517.56 1458.87,1518.25C1454.72,1518.94 1458.5,1515.58 1466.04,1514.75C1473.59,1513.91 1488.93,1516.14 1497.48,1518.17C1506.03,1520.2 1529.34,1520.41 1533.28,1518.17C1537.22,1515.92 1548.12,1515.38 1556.38,1513.01C1564.64,1510.64 1623.27,1500.69 1653.31,1507.05C1683.36,1513.41 1705.49,1522.76 1706,1525C1706.5,1527.24 1707.25,1530.61 1707.25,1531.31" style="fill:white;fill-rule:nonzero;"/>
        </g>
        <g transform="matrix(4.16667,0,0,4.16667,0,0)">
            <path d="M1712.23,1543.59C1712.23,1543.59 1728.39,1542.22 1738.07,1549.44C1747.75,1556.67 1760.38,1577.34 1760.38,1577.34L1754.8,1581.07C1754.8,1581.07 1760.29,1587.36 1766.22,1587.48C1772.15,1587.61 1775.7,1584.09 1779.58,1587.48C1783.47,1590.88 1786.74,1595.23 1787.49,1598.72C1788.25,1602.2 1782.96,1610.5 1782.96,1610.5C1782.96,1610.5 1793.02,1615.53 1793.53,1614.52C1794.03,1613.52 1800.88,1603.54 1799.97,1601.99C1799.06,1600.44 1794.28,1588.32 1792.02,1586.45C1789.75,1584.59 1784.47,1577.6 1782.96,1573.8C1781.45,1570 1778.94,1561.06 1776.93,1555.47C1774.92,1549.88 1771.89,1539.16 1770.38,1536.72C1768.88,1534.29 1761.43,1526.28 1760.38,1525C1759.32,1523.72 1760.09,1522.07 1754.8,1528.17C1749.51,1534.29 1752.53,1534.03 1743.47,1533.53C1734.42,1533.03 1741.21,1535.27 1728.89,1531.88C1716.56,1528.5 1713.29,1530.42 1710.27,1531.6C1707.25,1532.78 1706,1533.53 1706,1533.53" style="fill:white;fill-rule:nonzero;"/>
        </g>
        <g transform="matrix(4.16667,0,0,4.16667,0,0)">
            <path d="M1731.47,1631.64C1731.47,1631.64 1735.59,1625.37 1742.3,1631.64C1749.01,1637.91 1752.01,1645.21 1752.01,1645.21C1752.01,1645.21 1741.63,1642.06 1742.3,1643.51C1742.97,1644.96 1742.47,1648.92 1750.77,1657.37C1759.07,1665.83 1762.63,1669.48 1762.74,1675.58C1762.84,1681.68 1755.01,1690.1 1736.92,1697.84C1718.82,1705.57 1715.3,1707.59 1720.08,1706.33C1724.86,1705.07 1748.1,1701.02 1751.95,1698.77C1755.8,1696.52 1763.81,1691.2 1766.22,1688.95C1768.63,1686.71 1774.09,1682.69 1773.25,1679.41C1772.4,1676.15 1770.97,1672.21 1769.29,1667.76C1767.62,1663.32 1766.91,1658.04 1765.38,1653.01C1763.85,1647.97 1760.76,1643.42 1757.65,1638.03C1754.54,1632.63 1753.28,1631.66 1750.52,1628.75C1747.75,1625.84 1746.35,1624.89 1743.65,1624.61C1740.96,1624.33 1736.92,1625.52 1736.92,1625.52L1731.47,1631.64Z" style="fill:white;fill-rule:nonzero;"/>
        </g>
        <g transform="matrix(4.16667,0,0,4.16667,0,0)">
            <path d="M1787.68,1614.46C1788.43,1614.46 1796.73,1617.1 1796.73,1618.8C1796.73,1620.5 1795.61,1623.57 1794.66,1625.52C1793.72,1627.48 1793.72,1628.8 1794.66,1630.31C1795.6,1631.81 1797.49,1638.23 1798.81,1640.49C1800.13,1642.76 1801.07,1648.73 1801.07,1648.73C1801.07,1648.73 1798.24,1642.76 1790.32,1641.44C1782.4,1640.11 1774.85,1645.02 1774.1,1649.55C1773.34,1654.07 1773.9,1658.04 1773.25,1657.28C1772.59,1656.53 1766.66,1650.11 1765.38,1646.91C1764.1,1643.7 1762.31,1642.35 1760.38,1638.03C1758.44,1633.7 1757.4,1628.42 1757.54,1626.34C1757.69,1624.27 1761.85,1621.63 1769.29,1618.51C1776.74,1615.4 1783.53,1613.33 1785.23,1613.33" style="fill:rgb(104,114,118);fill-rule:nonzero;"/>
        </g>
        <g transform="matrix(4.16667,0,0,4.16667,0,0)">
            <path d="M1754.8,1626.91C1754.8,1626.91 1762.14,1620.12 1770.38,1618.23C1778.63,1616.35 1784.47,1622.57 1784.47,1622.57C1784.47,1622.57 1782.33,1625.97 1779.58,1628.75C1776.83,1631.53 1773.87,1633.08 1771.26,1633.13C1768.64,1633.18 1762.31,1633.32 1760.38,1632.38C1758.44,1631.44 1754.8,1626.91 1754.8,1626.91Z" style="fill:white;fill-rule:nonzero;"/>
        </g>
        <g transform="matrix(4.16667,0,0,4.16667,0,0)">
            <path d="M1762.16,1625.78C1762.39,1628.9 1766.39,1631.15 1771.09,1630.8C1775.78,1630.45 1779.4,1627.64 1779.17,1624.52C1778.94,1621.4 1774.94,1619.15 1770.25,1619.5C1765.55,1619.85 1761.93,1622.66 1762.16,1625.78Z" style="fill:rgb(191,211,214);fill-rule:nonzero;"/>
        </g>
        <g transform="matrix(4.16667,0,0,4.16667,0,0)">
            <path d="M1768.67,1624.4C1768.22,1626.84 1768.88,1629.02 1770.15,1629.25C1771.41,1629.48 1772.8,1627.68 1773.25,1625.24C1773.7,1622.79 1773.04,1620.61 1771.77,1620.38C1770.5,1620.15 1769.11,1621.95 1768.67,1624.4Z" style="fill:rgb(148,171,175);fill-rule:nonzero;"/>
        </g>
        <g transform="matrix(4.16667,0,0,4.16667,0,0)">
            <path d="M1763.45,1624.95C1763.45,1624.95 1763.19,1629.5 1768.4,1630.71C1768.4,1630.71 1765.91,1631.05 1763.55,1629.18C1761.19,1627.32 1761.33,1625.39 1761.33,1625.39L1763.45,1624.95Z" style="fill:rgb(148,171,175);fill-rule:nonzero;"/>
        </g>
        <g transform="matrix(4.16667,0,0,4.16667,0,0)">
            <path d="M1773.15,1620.44C1773.15,1620.44 1776.12,1621.22 1777.53,1623.22C1778.95,1625.22 1778.59,1627.13 1777.38,1628.37C1777.38,1628.37 1778.62,1627.57 1779.33,1625.91C1780.03,1624.25 1779.33,1621.49 1776.52,1620.15C1776.52,1620.15 1774.19,1620 1773.15,1620.44Z" style="fill:rgb(148,171,175);fill-rule:nonzero;"/>
        </g>
        <g transform="matrix(4.16667,0,0,4.16667,0,0)">
            <path d="M1768.91,1624.44C1768.58,1626.28 1769.22,1627.93 1770.35,1628.14C1771.48,1628.35 1772.67,1627.03 1773,1625.19C1773.34,1623.35 1772.7,1621.7 1771.57,1621.49C1770.44,1621.28 1769.25,1622.6 1768.91,1624.44Z" style="fill:rgb(15,15,39);fill-rule:nonzero;"/>
        </g>
        <g transform="matrix(4.16667,0,0,4.16667,0,0)">
            <path d="M1610.98,1577.11C1610.98,1577.11 1603.23,1576.92 1594.25,1579.18C1585.26,1581.45 1575.2,1587.48 1575.2,1587.48C1575.2,1587.48 1584.61,1585.27 1589.46,1585.06L1580.12,1590.12C1580.12,1590.12 1584.23,1598.61 1589.46,1606.35C1594.7,1614.08 1598.85,1615.4 1598.85,1615.4C1598.85,1615.4 1593.38,1606.93 1591.11,1598.72C1591.11,1598.72 1600.17,1609.88 1609.04,1616.32C1617.9,1622.76 1621.81,1623.89 1621.81,1623.89C1621.81,1623.89 1611.49,1623.14 1606.2,1619.74C1606.2,1619.74 1608.09,1625.59 1623.75,1631.25C1639.41,1636.91 1655.53,1631.25 1655.53,1631.25C1655.53,1631.25 1661.29,1627.48 1660.72,1625.78C1660.16,1624.08 1655.53,1612.41 1653.31,1608.53C1651.1,1604.65 1646.9,1599.75 1642.3,1595.22C1637.71,1590.69 1634.12,1588.48 1629.22,1585.06C1624.31,1581.63 1619.2,1579.37 1617.98,1578.81" style="fill:rgb(104,114,118);fill-rule:nonzero;"/>
        </g>
        <g transform="matrix(4.16667,0,0,4.16667,0,0)">
            <path d="M1591.25,1580.06C1591.25,1580.06 1597.15,1579.69 1599.6,1582.08C1599.6,1582.08 1592.43,1586.96 1588.66,1589.49C1588.66,1589.49 1593.57,1597.12 1597.53,1600.6C1601.49,1604.08 1604.32,1606.72 1604.32,1606.72L1600.36,1597.67C1600.36,1597.67 1604.13,1603.04 1610.17,1607.9C1616.2,1612.76 1629.22,1619.93 1629.22,1619.93C1629.22,1619.93 1619.79,1617.42 1615.07,1614.52C1615.07,1614.52 1619.41,1619.1 1632.24,1623.19C1645.07,1627.29 1656.45,1622.19 1656.45,1622.19C1656.45,1622.19 1656.71,1615.72 1656.17,1614.52C1655.63,1613.33 1652.4,1605.46 1648.83,1602.41C1645.25,1599.37 1637.93,1593.81 1633.38,1591.02C1628.84,1588.24 1626.77,1586.72 1623.37,1584.36C1619.98,1582.01 1618.28,1582.02 1615.45,1580.04C1612.62,1578.05 1606.96,1577.23 1605.26,1577.36C1603.56,1577.49 1600.92,1578.24 1600.92,1578.24" style="fill:rgb(64,74,76);fill-rule:nonzero;"/>
        </g>
        <g transform="matrix(4.16667,0,0,4.16667,0,0)">
            <path d="M1624.53,1589.49C1624.53,1589.49 1615.69,1589.46 1612.93,1589.23C1610.17,1588.99 1605.26,1591.02 1605.26,1591.02C1605.26,1591.02 1607.34,1592.96 1608.09,1595.22C1608.85,1597.48 1614.69,1605.84 1624.07,1612.23C1633.45,1618.62 1640.86,1619.93 1642.3,1619.93C1643.74,1619.93 1654.5,1616.32 1654.5,1616.32C1654.5,1616.32 1649.95,1607.48 1648.83,1606.35C1647.71,1605.22 1642.05,1599.37 1638.65,1596.92C1635.26,1594.46 1627.72,1589.49 1627.72,1589.49" style="fill:white;fill-rule:nonzero;"/>
        </g>
        <g transform="matrix(4.16667,0,0,4.16667,0,0)">
            <path d="M1644.46,1610.02C1642.51,1614.81 1635.08,1616.32 1627.87,1613.39C1620.66,1610.46 1616.39,1604.2 1618.34,1599.41C1620.28,1594.62 1627.71,1593.11 1634.92,1596.04C1642.13,1598.97 1646.4,1605.23 1644.46,1610.02Z" style="fill:rgb(191,211,214);fill-rule:nonzero;"/>
        </g>
        <g transform="matrix(4.16667,0,0,4.16667,0,0)">
            <path d="M1634.22,1606.31C1631.8,1609.64 1628.44,1611.32 1626.72,1610.06C1625,1608.81 1625.57,1605.1 1627.99,1601.78C1630.42,1598.45 1633.77,1596.77 1635.49,1598.02C1637.21,1599.27 1636.64,1602.98 1634.22,1606.31Z" style="fill:rgb(148,171,175);fill-rule:nonzero;"/>
        </g>
        <g transform="matrix(4.16667,0,0,4.16667,0,0)">
            <path d="M1633.89,1606.07C1632.07,1608.56 1629.35,1609.68 1627.82,1608.56C1626.28,1607.44 1626.51,1604.51 1628.33,1602.02C1630.14,1599.52 1632.86,1598.41 1634.4,1599.53C1635.93,1600.64 1635.7,1603.57 1633.89,1606.07Z" style="fill:rgb(15,15,39);fill-rule:nonzero;"/>
        </g>
        <g transform="matrix(4.16667,0,0,4.16667,0,0)">
            <path d="M1642.85,1608.07C1642.85,1608.07 1640.96,1615.36 1632.14,1614.62C1632.14,1614.62 1635.89,1616.41 1640.55,1614.67C1645.21,1612.93 1645.96,1609.82 1645.96,1609.82L1642.85,1608.07Z" style="fill:rgb(148,171,175);fill-rule:nonzero;"/>
        </g>
        <g transform="matrix(4.16667,0,0,4.16667,0,0)">
            <path d="M1629.88,1596.04C1629.88,1596.04 1624.8,1595.77 1621.57,1598.21C1618.33,1600.64 1617.93,1603.81 1619.21,1606.38C1619.21,1606.38 1617.66,1604.49 1617.39,1601.52C1617.12,1598.54 1619.61,1594.56 1624.71,1593.88C1624.71,1593.88 1628.46,1594.83 1629.88,1596.04Z" style="fill:rgb(148,171,175);fill-rule:nonzero;"/>
        </g>
        <g transform="matrix(4.16667,0,0,4.16667,0,0)">
            <path d="M1605.83,1631.66C1604.7,1631.63 1584.32,1615.4 1545.08,1625.21C1545.08,1625.21 1559.3,1625.53 1557.85,1625.75C1556.4,1625.97 1543.86,1632.06 1537.21,1637.38C1530.57,1642.7 1521.5,1651.73 1521.5,1651.73L1532.26,1655.39C1532.26,1655.39 1518.67,1677.91 1502.83,1682.5C1486.98,1687.09 1445.24,1686.27 1429.26,1674.45L1429.26,1685.96L1420.96,1695.96L1420.96,1706.8C1420.96,1706.8 1413.47,1716.02 1420.96,1717.21C1428.45,1718.4 1436.05,1732.64 1437.93,1733.45C1439.82,1734.25 1445.86,1739.48 1445.86,1739.48L1449.63,1743.42C1449.63,1743.42 1443.97,1751.79 1445.86,1753.21C1447.74,1754.62 1453.4,1761.49 1453.4,1761.49C1453.4,1761.49 1450.76,1765.95 1453.4,1767.83C1456.04,1769.71 1462.08,1776.1 1463.97,1776.3C1465.85,1776.5 1470.38,1777.64 1474.15,1778.39C1475.2,1778.6 1478.46,1777.96 1483.24,1777.32C1495.75,1775.64 1518.67,1773.96 1539.42,1787.54C1568.1,1806.31 1571.49,1820.08 1572.25,1823C1573,1825.93 1576.02,1835.38 1574.89,1836.31C1573.76,1837.25 1570.74,1850.08 1570.36,1851.96C1569.98,1853.85 1572.45,1866.63 1573.01,1869.51C1573.58,1872.4 1574.51,1884.35 1575.64,1885.51C1576.78,1886.67 1586.96,1885.51 1586.96,1885.51C1586.96,1885.51 1592.25,1884.95 1593.38,1889.77C1594.51,1894.59 1600.54,1902.9 1602.81,1904.78C1605.07,1906.67 1609.22,1920.25 1609.22,1920.25C1609.22,1920.25 1603.19,1926.29 1609.22,1928.55C1615.26,1930.81 1625.31,1935.72 1627.83,1936.85C1630.35,1937.98 1634.88,1939.49 1640.16,1939.87C1645.44,1940.25 1650.64,1942.89 1654.64,1939.87C1658.65,1936.85 1669.16,1931.19 1669.16,1931.19L1675.67,1929.68C1675.67,1929.68 1680.53,1928.55 1684.49,1925.91C1688.45,1923.27 1692.61,1916.86 1694.87,1914.59C1697.13,1912.33 1703.54,1905.54 1705.05,1902.9C1706.56,1900.25 1714.46,1889.77 1714.46,1889.77C1714.46,1889.77 1718.64,1883.28 1718.64,1877.99C1718.64,1872.71 1719.01,1863.82 1720.52,1856C1722.03,1848.19 1735.03,1829.32 1745.32,1817.25C1755.61,1805.18 1754.48,1802.91 1759.38,1800.65C1764.29,1798.39 1775.61,1794.24 1777.12,1793.86C1778.62,1793.48 1783.15,1791.21 1785.79,1791.97C1788.43,1792.73 1793.35,1796.88 1794.85,1797.25C1796.36,1797.63 1798.24,1799.71 1802.77,1787.54C1807.3,1775.37 1812.58,1770.1 1814.09,1767.83C1815.6,1765.56 1820.88,1763.68 1820.88,1761.79C1820.88,1759.9 1823.71,1759.81 1823.52,1756.51C1823.33,1753.21 1826.54,1752.2 1827.29,1748.13C1828.05,1744.06 1829.18,1742.55 1829.18,1737.64C1829.18,1732.74 1832.95,1725.64 1831.45,1721.64C1829.94,1717.65 1825.03,1702.94 1822.01,1694.63C1818.99,1686.33 1814.09,1677.66 1809.18,1672.75C1804.28,1667.85 1802.02,1667.09 1794.85,1664.45C1787.68,1661.81 1787.3,1657.94 1782.02,1657.8C1776.74,1657.66 1769.48,1661.05 1769.48,1661.05C1769.48,1661.05 1775.79,1670.97 1773.43,1679.4C1771.08,1687.84 1739.01,1707.29 1733.73,1707.56C1728.45,1707.84 1706.56,1712.93 1703.92,1706.8C1701.28,1700.67 1692.6,1684.5 1689.96,1682.02C1687.32,1679.54 1674.94,1655.06 1667.73,1647.3C1660.53,1639.55 1640.16,1645.69 1640.16,1645.69L1648.46,1664.83C1648.46,1664.83 1637.52,1650.86 1629.41,1643.88C1621.3,1636.91 1605.83,1631.66 1605.83,1631.66Z" style="fill:white;fill-rule:nonzero;"/>
        </g>
        <g transform="matrix(4.16667,0,0,4.16667,0,0)">
            <path d="M1718.26,1758.21C1718.26,1758.21 1721.28,1758.58 1721.18,1760.94C1721.09,1763.3 1711.11,1781.22 1702.42,1791.03C1693.74,1800.84 1702.39,1787.26 1702.21,1786.13C1702.04,1784.99 1704.11,1779.15 1704.3,1778.2C1704.49,1777.26 1708.64,1768.3 1708.64,1768.3L1717.32,1758.21" style="fill:rgb(164,172,176);fill-rule:nonzero;"/>
        </g>
        <g transform="matrix(4.16667,0,0,4.16667,0,0)">
            <path d="M1665.12,1751.63C1665.12,1751.63 1669.11,1747.55 1671.8,1749.67C1674.49,1751.79 1666.29,1772.92 1657.94,1781.03C1649.59,1789.14 1656.67,1767.93 1657.94,1765.05C1659.21,1762.17 1658.36,1759.78 1660.29,1756.54C1662.23,1753.3 1665.12,1749.51 1665.12,1749.51" style="fill:rgb(164,172,176);fill-rule:nonzero;"/>
        </g>
        <g transform="matrix(4.16667,0,0,4.16667,0,0)">
            <path d="M1738.82,1769.42C1738.82,1769.42 1733.92,1771.46 1733.16,1774.93C1732.41,1778.39 1732.97,1783.74 1725.99,1797.47C1719.01,1811.21 1710.59,1819.14 1710.27,1819.14C1709.96,1819.14 1711.66,1818.01 1712.98,1814.23C1714.3,1810.46 1717.32,1795.92 1716.94,1793.1C1716.56,1790.28 1717.5,1784.4 1717.5,1781.68C1717.5,1778.96 1720.33,1774.62 1720.9,1773.49C1721.47,1772.35 1726.83,1769 1728.68,1768.23C1730.52,1767.45 1736.56,1766.44 1737.5,1766.76" style="fill:rgb(164,172,176);fill-rule:nonzero;"/>
        </g>
        <g transform="matrix(4.16667,0,0,4.16667,0,0)">
            <path d="M1707.98,1828.76C1707.98,1828.76 1702.41,1839.91 1696.38,1844.05C1696.38,1844.05 1700.15,1842.94 1704.68,1839.24C1704.68,1839.24 1705.05,1845.74 1696.38,1853.09C1687.7,1860.45 1679.49,1863.47 1679.49,1863.47C1679.49,1863.47 1684.3,1858.38 1684.3,1856.11C1684.3,1853.85 1686.75,1843.47 1686.75,1843.47C1686.75,1843.47 1690.91,1839.13 1692.79,1837.63C1694.68,1836.12 1701.64,1834.42 1702.21,1833.1C1702.79,1831.78 1706.37,1828.76 1706.37,1828.76" style="fill:rgb(164,172,176);fill-rule:nonzero;"/>
        </g>
        <g transform="matrix(4.16667,0,0,4.16667,0,0)">
            <path d="M1635.95,1821.53C1635.95,1821.53 1635.57,1839.01 1628.46,1853.28C1628.46,1853.28 1633.26,1847.62 1635.01,1841.78C1635.01,1841.78 1636.32,1851.46 1630.22,1861.99C1624.13,1872.52 1620.73,1875.54 1619.03,1872.71C1617.33,1869.88 1614.5,1855.73 1614.69,1854.79C1614.88,1853.85 1620.52,1840.86 1621.57,1839.24C1622.62,1837.63 1626.58,1829.32 1628.46,1827.44" style="fill:rgb(164,172,176);fill-rule:nonzero;"/>
        </g>
        <g transform="matrix(4.16667,0,0,4.16667,0,0)">
            <path d="M1641.1,1762.73C1641.1,1762.73 1640.54,1783.11 1629.22,1799.52C1629.22,1799.52 1627.52,1782.54 1626.58,1777.64C1625.63,1772.73 1626.2,1762.36 1626.58,1760.66C1626.96,1758.96 1633.26,1751.66 1635.01,1751.63C1636.76,1751.6 1641.09,1753.49 1641.1,1754.34" style="fill:rgb(164,172,176);fill-rule:nonzero;"/>
        </g>
        <g transform="matrix(4.16667,0,0,4.16667,0,0)">
            <path d="M1801.33,1693.05C1801.33,1693.05 1816.42,1705.21 1822.7,1718.34C1828.99,1731.48 1828.99,1738.78 1828.99,1738.78C1828.99,1738.78 1827.23,1746.66 1827.11,1749.26C1826.98,1751.85 1830,1757.39 1827.11,1758.65C1824.21,1759.9 1820.69,1759.9 1819.69,1762.42C1818.68,1764.93 1817.93,1767.7 1815.16,1771.47C1812.39,1775.25 1808.25,1776.5 1805.92,1781.03C1803.59,1785.56 1808.12,1786 1802.58,1788.67C1797.05,1791.34 1793.34,1796.88 1790.16,1795.62C1786.99,1794.36 1782.74,1790.96 1779.58,1794.05C1776.42,1797.13 1756.27,1805.92 1752.01,1809.57C1747.75,1813.23 1743.81,1816.75 1739.74,1821.53C1735.68,1826.31 1725.62,1838.63 1725.62,1838.63C1725.62,1838.63 1723.44,1841.4 1722.64,1840.14C1721.84,1838.88 1723.35,1823.24 1724.11,1820.01C1724.86,1816.78 1733.51,1806.1 1735.61,1801.02C1737.7,1795.93 1743.7,1791.34 1746.48,1786.06C1749.26,1780.78 1752.06,1774.24 1756.07,1772.48C1760.08,1770.72 1762.67,1772.1 1769.29,1766.76C1775.92,1761.41 1783.21,1756.32 1784.98,1754.34C1786.74,1752.36 1792.65,1744.34 1797.87,1731.25C1803.09,1718.15 1801.58,1711 1801.58,1709.67C1801.58,1708.34 1799.97,1697.84 1799.97,1697.84" style="fill:rgb(216,237,240);fill-rule:nonzero;"/>
        </g>
        <g transform="matrix(4.16667,0,0,4.16667,0,0)">
            <path d="M1803.84,1714.44C1803.84,1714.44 1810.88,1719.64 1815.41,1727.32C1819.94,1735 1819.94,1738.78 1819.94,1738.78C1819.94,1738.78 1810.63,1733.23 1806.1,1727.32C1806.1,1727.32 1805.35,1734 1807.61,1740.79C1809.88,1747.58 1811.89,1751.63 1811.89,1751.63C1811.89,1751.63 1812.89,1760.03 1811.26,1766.88C1809.63,1773.74 1806.36,1780.03 1806.36,1780.03C1806.36,1780.03 1806.61,1772.85 1805.6,1774.93C1804.59,1777.01 1799.19,1787.26 1797.87,1788.67C1796.55,1790.09 1793.78,1793.1 1793.78,1793.1C1793.78,1793.1 1797.43,1787.18 1797.87,1774.93C1798.31,1762.67 1794.66,1754.51 1794.66,1754.51L1790.32,1767.64C1790.32,1767.64 1791.39,1779.27 1790.32,1782.79C1789.25,1786.31 1786.99,1788.51 1784.98,1788.67C1782.96,1788.83 1775.17,1790.58 1772.9,1793.1C1770.64,1795.62 1769.13,1799.14 1766.87,1799.39C1764.6,1799.64 1759.54,1800.96 1757.54,1802.69C1755.55,1804.42 1750.63,1811.42 1748.43,1812.7C1746.24,1813.98 1737.04,1820.96 1735.61,1824.14C1734.17,1827.31 1729.39,1835.11 1726.75,1837.25C1724.11,1839.39 1722.19,1840.39 1722.64,1837.25C1723.1,1834.1 1723.61,1822.79 1726.88,1818.13C1730.14,1813.48 1734.42,1804.9 1737.94,1801.02C1741.46,1797.13 1749.51,1781.54 1750.27,1780.03C1751.02,1778.52 1759.08,1771.99 1763.23,1768.97C1767.37,1765.94 1774.66,1759.97 1778.94,1756.54C1783.21,1753.11 1791.01,1747.33 1795.29,1737.52C1799.56,1727.71 1800.17,1722.35 1801.12,1720.25C1802.08,1718.15 1803.84,1714.44 1803.84,1714.44Z" style="fill:rgb(191,211,214);fill-rule:nonzero;"/>
        </g>
        <g transform="matrix(4.16667,0,0,4.16667,0,0)">
            <path d="M1735.61,1810.05C1735.61,1810.05 1746.37,1801.59 1754.1,1791.22C1761.84,1780.84 1763.23,1776.84 1763.23,1776.84C1763.23,1776.84 1760.23,1783.67 1757.54,1789.33C1757.54,1789.33 1763.72,1783.86 1768.25,1778.58C1772.78,1773.3 1773.72,1771.22 1773.72,1771.22C1773.72,1771.22 1781.45,1768.58 1784.66,1765.56C1784.66,1765.56 1784.28,1771.6 1778.44,1779.9C1778.44,1779.9 1783.72,1775.95 1787.11,1768.97C1790.51,1761.98 1792.77,1754.34 1792.77,1754.34L1795.79,1748.4C1795.79,1748.4 1797.36,1750.85 1799.97,1760.09C1802.58,1769.34 1799.06,1783.27 1799.97,1782.81C1800.88,1782.35 1807.3,1772.73 1807.11,1761.41C1806.92,1750.09 1801.45,1743.11 1801.45,1743.11L1806.92,1750.09C1806.92,1750.09 1805.89,1743.79 1803.34,1739.72C1800.78,1735.65 1799.97,1732.74 1799.97,1732.74C1799.97,1732.74 1798.25,1736.51 1794.66,1741.04C1791.08,1745.57 1789.63,1751.41 1784.98,1754.34C1780.32,1757.26 1775.22,1761.22 1771.36,1763.3C1767.5,1765.37 1764.48,1767.24 1761.84,1769.42C1759.19,1771.6 1756.71,1774.43 1755.12,1776.79C1753.54,1779.15 1751.44,1782.84 1748.43,1787.5C1745.42,1792.16 1743.73,1796.37 1742.59,1797.47" style="fill:rgb(148,171,175);fill-rule:nonzero;"/>
        </g>
        <g transform="matrix(4.16667,0,0,4.16667,0,0)">
            <path d="M1621.81,1781.03C1621.64,1772.73 1618.21,1764.93 1611.67,1756.54C1605.14,1748.15 1583.25,1726.2 1581.74,1722.4C1580.23,1718.61 1579.23,1712.62 1577.97,1709.67C1576.71,1706.73 1571.43,1702.05 1570.27,1699.02C1569.11,1695.98 1564.91,1690.73 1564.91,1690.73C1564.91,1690.73 1561.87,1700.29 1551.56,1711.61C1541.25,1722.93 1528.92,1727.32 1528.92,1727.32C1528.92,1727.32 1532.95,1726.45 1542.03,1721.52C1551.11,1716.6 1556.84,1711.61 1556.84,1711.61C1556.84,1711.61 1553.57,1718.65 1544.27,1727.32C1534.96,1735.99 1521.31,1740.79 1521.31,1740.79C1530.31,1734.5 1537.48,1727.32 1537.48,1727.32C1537.48,1727.32 1532.19,1732.24 1512.07,1739.78C1491.95,1747.33 1479.9,1744.06 1479.9,1744.06C1488.08,1743.5 1494.21,1740.03 1494.21,1740.03C1494.21,1740.03 1482.89,1741.54 1463.78,1735.29C1444.66,1729.04 1423.41,1715.63 1423.41,1715.63L1432.21,1727.68C1432.21,1727.68 1432.31,1727.88 1432.48,1728.22C1433.81,1728.04 1435.14,1728.12 1436.48,1728.48C1437.27,1728.81 1438.05,1729.14 1438.84,1729.48C1439.99,1730.1 1440.92,1730.95 1441.62,1732.02C1442.49,1732.98 1443.08,1734.1 1443.39,1735.39C1443.73,1736.49 1443.83,1737.59 1443.68,1738.7C1443.72,1739.05 1443.74,1739.41 1443.74,1739.78C1443.63,1740.66 1443.51,1741.54 1443.39,1742.41C1442.92,1744.09 1442.07,1745.54 1440.84,1746.78C1440.7,1746.89 1440.56,1747 1440.41,1747.11C1440.62,1747.63 1440.83,1748.15 1441.04,1748.67C1441.32,1748.8 1441.59,1748.94 1441.86,1749.09C1442.53,1749.61 1443.2,1750.13 1443.86,1750.64C1444.83,1751.54 1445.51,1752.6 1445.91,1753.83C1446.53,1755.01 1446.81,1756.28 1446.76,1757.64C1446.81,1758.88 1446.58,1760.03 1446.07,1761.12C1448.19,1763.6 1451.01,1764.27 1453.47,1767.39C1456.99,1771.86 1466.8,1775.5 1471.25,1778.01C1475.71,1780.53 1479.88,1778.77 1486.16,1778.77C1492.45,1778.77 1496.73,1782.04 1502.43,1782.79C1508.12,1783.55 1520.62,1786.31 1523.32,1787.5C1526.02,1788.69 1552.82,1798.14 1554.52,1801.02C1556.21,1803.9 1569.42,1822.53 1571.68,1828.32C1573.95,1834.1 1582,1841.4 1586.02,1843.66C1590.04,1845.92 1605.89,1837.88 1611.54,1829.98C1617.18,1822.09 1618.72,1812.22 1621.81,1805.8C1624.91,1799.38 1621.99,1789.33 1621.81,1781.03Z" style="fill:rgb(216,237,240);fill-rule:nonzero;"/>
        </g>
        <g transform="matrix(4.16667,0,0,4.16667,0,0)">
            <path d="M1670.27,1557.22C1670.27,1557.22 1673.35,1563 1679.9,1569.93C1686.45,1576.86 1691.32,1584.57 1685.22,1588.04C1679.13,1591.5 1674.89,1586.88 1674.12,1580.72C1673.35,1574.55 1671.81,1576.86 1666.41,1567.23C1661.02,1557.6 1667,1552.17 1670.27,1557.22Z" style="fill:rgb(64,74,76);fill-rule:nonzero;"/>
        </g>
        <g transform="matrix(4.16667,0,0,4.16667,0,0)">
            <path d="M1689.91,1557.6C1689.91,1557.6 1694.92,1559.53 1696.46,1564.54C1698,1569.54 1704.94,1574.55 1703.78,1564.54C1702.63,1554.52 1684.98,1553.79 1689.91,1557.6Z" style="fill:rgb(64,74,76);fill-rule:nonzero;"/>
        </g>
        <g transform="matrix(4.16667,0,0,4.16667,0,0)">
            <path d="M1723.81,1580.72C1723.81,1580.72 1718.04,1585.72 1717.27,1591.5C1716.5,1597.28 1719.19,1601.13 1723.81,1601.91C1728.44,1602.68 1730.75,1598.12 1729.59,1589.23C1728.44,1580.33 1725.55,1578.97 1723.81,1580.72Z" style="fill:rgb(64,74,76);fill-rule:nonzero;"/>
        </g>
        <g transform="matrix(4.16667,0,0,4.16667,0,0)">
            <path d="M1721.89,1558.76C1721.89,1558.76 1724.58,1568.04 1724.97,1572.26C1725.36,1576.48 1732.49,1576.11 1729.89,1565.51C1727.28,1554.91 1721.19,1556.25 1721.89,1558.76Z" style="fill:rgb(64,74,76);fill-rule:nonzero;"/>
        </g>
        <g transform="matrix(4.16667,0,0,4.16667,0,0)">
            <path d="M1750.14,1591.02C1750.14,1591.02 1747.06,1595.74 1742.69,1600.88C1738.33,1606.01 1741.41,1609.61 1746.42,1608.07C1751.42,1606.53 1756.56,1600.88 1755.79,1593.69C1755.02,1586.5 1751.33,1589.27 1750.14,1591.02Z" style="fill:rgb(64,74,76);fill-rule:nonzero;"/>
        </g>
        <g transform="matrix(4.16667,0,0,4.16667,0,0)">
            <path d="M1765.55,1593.69C1765.55,1593.69 1765.81,1598.57 1764.01,1603.96C1762.21,1609.35 1761.98,1612.69 1765.56,1612.18C1769.14,1611.66 1771.51,1607.6 1770.2,1598.72C1768.89,1589.83 1765.56,1591.89 1765.55,1593.69Z" style="fill:rgb(64,74,76);fill-rule:nonzero;"/>
        </g>
        <g transform="matrix(4.16667,0,0,4.16667,0,0)">
            <path d="M1752.19,1568.77C1752.19,1568.77 1753.74,1578.02 1752.19,1582.64C1750.65,1587.27 1756.82,1589.03 1757.59,1580.06C1758.36,1571.09 1751.74,1565.15 1752.19,1568.77Z" style="fill:rgb(64,74,76);fill-rule:nonzero;"/>
        </g>
        <g transform="matrix(4.16667,0,0,4.16667,0,0)">
            <path d="M1762.74,1565.88C1762.74,1565.88 1759.38,1566.98 1760.67,1569.93C1761.95,1572.88 1763.49,1576.45 1764.52,1580.06C1765.55,1583.67 1771.51,1582.29 1770.2,1577.07C1768.89,1571.86 1764.5,1564.7 1762.74,1565.88Z" style="fill:rgb(64,74,76);fill-rule:nonzero;"/>
        </g>
        <g transform="matrix(4.16667,0,0,4.16667,0,0)">
            <path d="M1740.6,1555.47C1740.6,1555.47 1734.73,1557.22 1737.81,1560.81C1740.89,1564.41 1740.12,1566.36 1742.95,1567.69C1745.77,1569.03 1749.63,1564.92 1746.54,1560.04C1743.46,1555.16 1742.05,1554.86 1740.6,1555.47Z" style="fill:rgb(64,74,76);fill-rule:nonzero;"/>
        </g>
        <g transform="matrix(4.16667,0,0,4.16667,0,0)">
            <path d="M1726.15,1542.06C1726.15,1542.06 1723.17,1548.86 1727.8,1549.44C1732.42,1550.03 1735.24,1549.63 1738.07,1549.44C1740.89,1549.26 1740.38,1545.92 1738.07,1544.38C1735.76,1542.83 1726.72,1540.36 1726.15,1542.06Z" style="fill:rgb(64,74,76);fill-rule:nonzero;"/>
        </g>
        <g transform="matrix(4.16667,0,0,4.16667,0,0)">
            <path d="M1645.61,1569.93C1645.61,1569.93 1640.73,1579.18 1642.53,1589C1644.33,1598.82 1651.78,1603.49 1651.78,1598.72C1651.78,1593.94 1647.92,1590.78 1650.75,1586.45C1653.57,1582.13 1656.66,1581.54 1655.11,1574.77C1653.57,1568 1647.08,1566.44 1645.61,1569.93Z" style="fill:rgb(64,74,76);fill-rule:nonzero;"/>
        </g>
        <g transform="matrix(4.16667,0,0,4.16667,0,0)">
            <path d="M1643.3,1538.47C1643.3,1538.47 1631.49,1550.38 1636.37,1555.47C1641.25,1560.56 1644.6,1553.88 1648.83,1553.11C1653.06,1552.34 1657.17,1552.77 1657.17,1545.62C1657.17,1538.47 1648.95,1534.1 1643.3,1538.47Z" style="fill:rgb(64,74,76);fill-rule:nonzero;"/>
        </g>
        <g transform="matrix(4.16667,0,0,4.16667,0,0)">
            <path d="M1672.83,1526.4C1672.83,1526.4 1678.23,1531.38 1679.77,1536.72C1681.31,1542.06 1687.22,1541.29 1685.68,1533.85C1684.13,1526.4 1675.92,1521.78 1672.83,1523.32C1669.75,1524.86 1670.62,1524.04 1672.83,1526.4Z" style="fill:rgb(64,74,76);fill-rule:nonzero;"/>
        </g>
        <g transform="matrix(4.16667,0,0,4.16667,0,0)">
            <path d="M1642.13,1513.3C1642.13,1513.3 1652.34,1512.79 1655.53,1517.67C1658.71,1522.55 1648.44,1525.11 1643.3,1521C1638.16,1516.9 1638.43,1513.18 1642.13,1513.3Z" style="fill:rgb(64,74,76);fill-rule:nonzero;"/>
        </g>
        <g transform="matrix(4.16667,0,0,4.16667,0,0)">
            <path d="M1625.07,1562.89C1625.07,1562.89 1620.7,1567.02 1620.96,1572.26C1621.21,1577.51 1627.89,1587.33 1632,1589.23C1636.11,1591.12 1629.85,1582.29 1629,1577.07C1628.15,1571.86 1630.11,1567.75 1629,1564.41C1627.89,1561.07 1625.07,1562.89 1625.07,1562.89Z" style="fill:rgb(64,74,76);fill-rule:nonzero;"/>
        </g>
        <g transform="matrix(4.16667,0,0,4.16667,0,0)">
            <path d="M1560.09,1608.43C1560.09,1608.43 1549.04,1615 1552.38,1619.37C1555.72,1623.74 1556.49,1619.11 1562.14,1615.52C1567.79,1611.92 1563.41,1606.12 1560.09,1608.43Z" style="fill:rgb(64,74,76);fill-rule:nonzero;"/>
        </g>
        <g transform="matrix(4.16667,0,0,4.16667,0,0)">
            <path d="M1517.2,1631.44C1515.99,1632.32 1507.95,1637.09 1507.95,1648.13C1507.95,1659.18 1513.35,1651.47 1521.31,1648.13C1529.27,1644.79 1531.07,1645.05 1532.61,1637.86C1534.15,1630.67 1525.67,1625.28 1517.2,1631.44Z" style="fill:rgb(64,74,76);fill-rule:nonzero;"/>
        </g>
        <g transform="matrix(4.16667,0,0,4.16667,0,0)">
            <path d="M1484.32,1658.92C1482.36,1660.12 1470.71,1666.88 1469.17,1675.87C1467.63,1684.86 1465.06,1689.48 1472,1687.17C1478.93,1684.86 1477.39,1679.72 1484.32,1675.1C1491.26,1670.48 1492.54,1674.33 1491.77,1667.65C1491,1660.97 1489.86,1657.64 1491.97,1655.58C1494.08,1653.53 1487.68,1656.87 1484.32,1658.92Z" style="fill:rgb(64,74,76);fill-rule:nonzero;"/>
        </g>
        <g transform="matrix(4.16667,0,0,4.16667,0,0)">
            <path d="M1506.41,1702.63C1506.41,1702.63 1500.5,1708.5 1503.07,1714.53C1505.64,1720.56 1506.67,1721.33 1509.24,1720.04C1511.8,1718.76 1508.72,1712.85 1512.32,1709C1515.91,1705.15 1519.25,1702.58 1516.68,1699.76C1514.12,1696.93 1507.83,1700.91 1506.41,1702.63Z" style="fill:rgb(64,74,76);fill-rule:nonzero;"/>
        </g>
        <g transform="matrix(4.16667,0,0,4.16667,0,0)">
            <path d="M1492.39,1622.71C1492.39,1622.71 1493.83,1632.47 1488.95,1636.06C1484.07,1639.66 1483.95,1637.57 1479.9,1641.31C1475.85,1645.05 1469.43,1643.77 1471.74,1638.89C1474.05,1634.01 1477.65,1623.74 1485.09,1619.11C1492.54,1614.49 1492.2,1620.16 1492.39,1622.71Z" style="fill:rgb(64,74,76);fill-rule:nonzero;"/>
        </g>
        <g transform="matrix(4.16667,0,0,4.16667,0,0)">
            <path d="M1547.76,1586.45C1547.76,1586.45 1538.26,1589.32 1535.95,1595.48C1533.63,1601.65 1535.43,1605.16 1540.06,1601.99C1544.68,1598.82 1547.53,1596.2 1551.75,1594.81C1555.98,1593.43 1550.33,1592.02 1554.7,1589C1559.06,1585.98 1554.3,1583.34 1547.76,1586.45Z" style="fill:rgb(64,74,76);fill-rule:nonzero;"/>
        </g>
        <g transform="matrix(4.16667,0,0,4.16667,0,0)">
            <path d="M1512.83,1589.49C1512.83,1589.49 1506.41,1592.44 1505.13,1598.72C1503.84,1604.99 1507.44,1607.08 1514.89,1598.72C1522.33,1590.35 1530.19,1587.18 1525.49,1586.45C1520.79,1585.72 1516.93,1586.56 1512.83,1589.49Z" style="fill:rgb(64,74,76);fill-rule:nonzero;"/>
        </g>
        <g transform="matrix(4.16667,0,0,4.16667,0,0)">
            <path d="M1574.21,1554.06C1574.21,1554.06 1566.77,1557.5 1561.63,1561.59C1556.49,1565.69 1546.5,1566.72 1551.75,1560.04C1557.01,1553.37 1561.16,1553.33 1564.86,1549.75C1568.56,1546.17 1570.62,1543.53 1574.21,1545.62C1577.81,1547.71 1577.94,1552.17 1574.21,1554.06Z" style="fill:rgb(64,74,76);fill-rule:nonzero;"/>
        </g>
        <g transform="matrix(4.16667,0,0,4.16667,0,0)">
            <path d="M1593.73,1513.28C1591.97,1513.75 1580.12,1522.8 1583.97,1526.66C1587.83,1530.51 1588.34,1525.88 1595.79,1525.37C1603.24,1524.86 1607.09,1528.2 1610.43,1521.78C1613.76,1515.35 1598.61,1511.99 1593.73,1513.28Z" style="fill:rgb(64,74,76);fill-rule:nonzero;"/>
        </g>
        <g transform="matrix(4.16667,0,0,4.16667,0,0)">
            <path d="M1576.96,1518.17C1576.96,1518.17 1569.46,1524.33 1563.62,1528.96C1557.78,1533.59 1552.93,1532.26 1556.38,1528.17C1559.83,1524.09 1554.95,1524.8 1561.12,1520.59C1567.28,1516.38 1581.12,1514.78 1576.96,1518.17Z" style="fill:rgb(64,74,76);fill-rule:nonzero;"/>
        </g>
        <g transform="matrix(4.16667,0,0,4.16667,0,0)">
            <path d="M1530.3,1554.06C1530.3,1554.06 1535.44,1554.65 1532.22,1559.53C1529.01,1564.41 1524.65,1566.72 1522.08,1569.93C1519.51,1573.14 1513.81,1574.94 1515.89,1569.93C1517.97,1564.92 1523.62,1555.52 1530.3,1554.06Z" style="fill:rgb(64,74,76);fill-rule:nonzero;"/>
        </g>
        <g transform="matrix(4.16667,0,0,4.16667,0,0)">
            <path d="M1588.08,1563.55C1588.08,1563.55 1583.46,1567.24 1579.09,1570.32C1574.73,1573.4 1567.79,1576.48 1572.16,1569.93C1576.53,1563.38 1583.2,1557 1586.8,1557.37C1590.39,1557.73 1589.86,1562.16 1588.08,1563.55Z" style="fill:rgb(64,74,76);fill-rule:nonzero;"/>
        </g>
        <g transform="matrix(4.16667,0,0,4.16667,0,0)">
            <path d="M1601.9,1563.55C1601.9,1563.55 1594.25,1569.84 1594.25,1572.26C1594.25,1574.68 1596.72,1570.07 1601.9,1570.32C1607.09,1570.57 1611.63,1569.93 1610.9,1565.88C1610.17,1561.84 1604.81,1560.98 1601.9,1563.55Z" style="fill:rgb(64,74,76);fill-rule:nonzero;"/>
        </g>
        <g transform="matrix(4.16667,0,0,4.16667,0,0)">
            <path d="M1618.9,1525.63C1618.9,1525.63 1608.63,1531.28 1609.14,1534.36C1609.66,1537.44 1614.54,1534.21 1618.9,1536.72C1623.27,1539.24 1627.98,1540.01 1627.17,1533.85C1626.35,1527.68 1622.67,1523.32 1618.9,1525.63Z" style="fill:rgb(64,74,76);fill-rule:nonzero;"/>
        </g>
        <g transform="matrix(4.16667,0,0,4.16667,0,0)">
            <path d="M1684.3,1776.13C1683.93,1775.18 1673.64,1773.49 1673.64,1773.49C1673.64,1773.49 1669.97,1777.26 1666.76,1778.77C1663.55,1780.28 1658.56,1781.39 1654.45,1782.81C1650.35,1784.24 1645.38,1787.26 1642.68,1790.65C1639.97,1794.05 1636.2,1793.67 1634.69,1799.33C1633.18,1804.99 1635.63,1813.1 1636.39,1816.78C1637.14,1820.46 1638.27,1824.61 1638.65,1826.68C1639.03,1828.76 1640.16,1833.85 1639.97,1834.98C1639.78,1836.12 1639.58,1840.08 1641.1,1841.59C1642.61,1843.1 1645.63,1844.13 1652.61,1846.16C1659.59,1848.19 1675.25,1848.28 1681.38,1846.16C1687.51,1844.04 1693.55,1838.95 1694.68,1838.38C1695.81,1837.81 1700.71,1829.14 1701.28,1826.87C1701.85,1824.61 1703.54,1816.12 1701.28,1813.48C1699.02,1810.84 1691.89,1804.61 1691.21,1800.65C1690.53,1796.69 1691.85,1789.9 1690.34,1787.07C1688.83,1784.24 1685.25,1778.2 1685.25,1778.2" style="fill:rgb(237,31,39);fill-rule:nonzero;"/>
        </g>
        <g transform="matrix(4.16667,0,0,4.16667,0,0)">
            <path d="M1655.32,1787.46C1655.32,1787.46 1662.48,1795.37 1660.34,1812.16C1660.34,1812.16 1664.87,1806.06 1664.12,1795.12C1663.36,1784.18 1662.11,1782.58 1661.48,1782.81C1660.85,1783.04 1655.32,1785.06 1655.32,1785.06" style="fill:rgb(150,27,30);fill-rule:nonzero;"/>
        </g>
        <g transform="matrix(4.16667,0,0,4.16667,0,0)">
            <path d="M1654.45,1787.5C1654.45,1787.5 1644,1803.42 1647.14,1815.24C1650.28,1827.06 1657.08,1829.32 1657.08,1829.32C1657.08,1829.32 1652.46,1825.43 1651.81,1822.66C1651.81,1822.66 1655.44,1827.38 1664.24,1829.98C1673.05,1832.59 1670.16,1827.2 1670.16,1827.2C1670.16,1827.2 1675.19,1824.48 1676.82,1824.14C1678.46,1823.79 1682.26,1821.95 1685.12,1821.28C1687.98,1820.6 1692.29,1816.96 1694.68,1816.92C1697.07,1816.87 1698.71,1814.86 1700.72,1819.01C1702.73,1823.16 1702.48,1828.76 1701.34,1829.98C1700.21,1831.21 1695.68,1839.01 1689.14,1842.28C1682.61,1845.55 1677.95,1849.57 1671.54,1848.63C1665.12,1847.69 1653.81,1847.35 1650.54,1845.19C1647.27,1843.03 1644.37,1843.16 1641.73,1836.62C1639.09,1830.08 1638.71,1829.51 1637.64,1824.14C1636.58,1818.76 1635.44,1817.28 1636.2,1810.6C1636.95,1803.92 1639.47,1801.11 1642.68,1795.85C1645.88,1790.59 1651.16,1787.5 1651.16,1787.5" style="fill:rgb(181,31,36);fill-rule:nonzero;"/>
        </g>
        <g transform="matrix(4.16667,0,0,4.16667,0,0)">
            <path d="M1648.85,1793.1C1648.85,1793.1 1644.11,1798.58 1643.36,1808.2C1642.61,1817.82 1647.14,1833.66 1659.02,1838.76C1670.91,1843.85 1690.15,1835.74 1693.55,1829.98C1696.94,1824.23 1694.68,1823.1 1693.55,1824.14C1692.41,1825.17 1692.04,1829.32 1684.3,1833.1C1684.3,1833.1 1689.38,1830.08 1688.64,1825.36C1687.91,1820.65 1679.49,1825.22 1679.49,1825.22C1679.49,1825.22 1685.25,1818.28 1687.89,1816.92C1690.53,1815.55 1696.41,1813.29 1698.09,1814.99C1699.77,1816.69 1700.71,1822.34 1700.71,1824.14C1700.71,1825.93 1700.85,1829.17 1698.09,1831.02C1695.33,1832.88 1687.51,1842.15 1686.75,1843.47C1686,1844.79 1683.92,1846.77 1681.38,1846.16C1678.83,1845.55 1674.13,1846.49 1669.03,1846.87C1663.93,1847.25 1658.94,1845.4 1654.45,1845.19C1649.97,1844.98 1645.63,1846.49 1644.5,1844.04C1643.37,1841.59 1640.54,1838.76 1639.97,1834.98C1639.41,1831.21 1639.59,1827.63 1638.08,1823.1C1636.58,1818.57 1634.96,1814.33 1635.01,1810.6C1635.07,1806.88 1637.2,1802.35 1637.64,1800.65C1638.08,1798.95 1646.39,1793.1 1646.39,1793.1" style="fill:rgb(150,27,30);fill-rule:nonzero;"/>
        </g>
        <g transform="matrix(4.16667,0,0,4.16667,0,0)">
            <path d="M1775.36,1662.06C1775.36,1662.06 1787.49,1670.71 1779.58,1693.05C1775.57,1704.39 1756.07,1721.52 1756.07,1721.52C1756.07,1721.52 1776.51,1718.02 1785.77,1712.8C1795.04,1707.59 1798.43,1704.36 1797.87,1704.97C1797.3,1705.57 1799.97,1707.93 1799.97,1707.93L1797.87,1712.18C1797.87,1712.18 1786.99,1724.19 1767.12,1729.97C1747.25,1735.76 1740.96,1734.58 1740.96,1734.58C1740.96,1734.58 1747.75,1739.03 1759.19,1738.27C1770.64,1737.52 1778.69,1734.58 1778.69,1734.58C1778.69,1734.58 1769.42,1741.54 1756.07,1742.8C1742.72,1744.06 1737.44,1741.04 1737.44,1741.04C1737.44,1741.04 1749.34,1749.12 1764.52,1748.6C1779.69,1748.08 1785.73,1747.18 1785.73,1747.18C1785.73,1747.18 1774.88,1754.31 1757.54,1754.34C1740.2,1754.37 1725.62,1747.18 1725.62,1747.18C1725.62,1747.18 1721.34,1748.14 1724.11,1751.63C1726.87,1755.12 1722.14,1757.14 1721.36,1756.38C1720.58,1755.63 1710.27,1750.27 1710.27,1746.79C1710.27,1743.3 1710.73,1733.53 1714.27,1731.25C1717.82,1728.97 1729.89,1728.31 1733.66,1723.61C1737.44,1718.91 1747,1711.54 1749.76,1707.93C1752.53,1704.32 1759.19,1697.84 1759.19,1697.84C1759.19,1697.84 1765.34,1693.01 1769.29,1686.21C1773.25,1679.41 1775.17,1675.89 1774.16,1673.38C1773.15,1670.86 1773.25,1660.62 1773.25,1660.62L1775.36,1662.06Z" style="fill:rgb(164,172,176);fill-rule:nonzero;"/>
        </g>
        <g transform="matrix(4.16667,0,0,4.16667,0,0)">
            <path d="M1671.37,1659.73C1671.37,1659.73 1669.94,1667.59 1671.37,1679.41C1672.8,1691.24 1673.05,1693.05 1673.05,1693.05C1673.05,1693.05 1658.28,1679.29 1651.58,1675.58C1644.88,1671.87 1649.29,1673.88 1642.3,1670.36C1635.32,1666.84 1635.23,1667.59 1631.5,1666.59C1627.77,1665.58 1624.03,1661.82 1621.25,1660.05C1618.47,1658.29 1614.74,1656.02 1612.96,1654.26C1611.17,1652.5 1607.65,1648.73 1607.65,1648.73C1607.65,1648.73 1608.2,1654.26 1612.96,1664.07C1617.71,1673.88 1624.53,1681.68 1624.53,1681.68C1624.53,1681.68 1609.66,1680.98 1601.61,1670.89C1593.57,1660.8 1587.78,1653.26 1587.78,1653.26L1583,1660.05C1583,1660.05 1584.26,1673.68 1598.85,1684.85C1613.44,1696.02 1627.72,1700.79 1627.72,1700.79C1627.72,1700.79 1608.66,1695.78 1598.85,1688.1C1598.85,1688.1 1605.04,1695.89 1621.81,1703.63C1638.59,1711.36 1657.75,1711.61 1657.75,1711.61C1657.75,1711.61 1633.97,1711.79 1621.81,1707.93C1609.66,1704.07 1603.88,1699.02 1603.88,1699.02C1603.88,1699.02 1613.56,1710.73 1629.22,1714.44C1644.88,1718.15 1655.23,1718.29 1654.45,1718.34C1653.68,1718.4 1627.27,1717.9 1615.7,1712.87C1604.13,1707.84 1598.85,1704.97 1598.85,1704.97C1598.85,1704.97 1609.95,1715.81 1621.25,1720.25C1632.55,1724.69 1642.3,1725.82 1642.3,1725.82C1642.3,1725.82 1617.96,1722.6 1607.9,1720.25C1597.84,1717.9 1584.76,1711.61 1585.26,1711.61C1585.77,1711.61 1591.3,1722.66 1607.4,1727.32C1623.5,1731.98 1650.55,1734.58 1650.55,1734.58C1650.55,1734.58 1637.63,1738.18 1624.53,1734.58C1624.53,1734.58 1631.78,1741.29 1643.36,1740.28C1654.94,1739.28 1660.72,1735.76 1670.28,1736.51C1679.84,1737.27 1686.13,1740.03 1684.11,1742.04C1682.1,1744.06 1690.15,1747.75 1696.94,1746.79C1703.73,1745.82 1712.41,1736.92 1712.22,1734.58C1712.03,1732.24 1708.76,1707.99 1701.97,1702C1695.18,1696.02 1684.37,1683.19 1683.11,1679.16C1681.85,1675.14 1678.08,1670.61 1678.08,1670.61L1671.37,1659.73Z" style="fill:rgb(164,172,176);fill-rule:nonzero;"/>
        </g>
        <g transform="matrix(4.16667,0,0,4.16667,0,0)">
            <path d="M1673.93,1684.07C1673.93,1684.07 1673.93,1691.7 1676.57,1699.02C1679.21,1706.33 1683.36,1710.29 1682.61,1710.29C1681.85,1710.29 1667.51,1691.75 1661.48,1688.1C1661.48,1688.1 1665.44,1692.93 1667.51,1697.18C1669.59,1701.42 1665.2,1699.92 1656.45,1695.77C1647.71,1691.61 1638.65,1688.1 1638.65,1688.1C1638.65,1688.1 1649.04,1696.99 1651.58,1699.02C1651.58,1699.02 1658.27,1704.06 1663.74,1707.93C1669.21,1711.8 1665.82,1713.31 1665.82,1713.31C1665.82,1713.31 1652.99,1715.01 1645.63,1713.31C1645.63,1713.31 1650.41,1716.33 1660.66,1717.27C1670.91,1718.21 1675.49,1717.27 1675.49,1717.27C1675.49,1717.27 1664.31,1720.69 1655.06,1721.52C1645.82,1722.36 1642.3,1721.86 1642.3,1721.86C1642.3,1721.86 1651.48,1726.89 1663.74,1725.19C1676,1723.5 1682.7,1720.25 1682.7,1720.25C1682.7,1720.25 1682.01,1725.88 1672.98,1731.25C1672.98,1731.25 1676.94,1730.96 1682.7,1727.32C1682.7,1727.32 1677.32,1732.93 1677.89,1732.55C1678.46,1732.17 1681.66,1730.48 1685.43,1728.03C1689.21,1725.57 1692.98,1729.34 1694.87,1733.68C1696.75,1738.02 1694.54,1741.42 1691.21,1742.17C1687.89,1742.93 1697.13,1744.63 1700.9,1744.06C1704.68,1743.49 1708.64,1735.76 1708.64,1733.68C1708.64,1731.61 1704.87,1699.72 1701.47,1697.84C1698.07,1695.95 1699.39,1697.27 1692.04,1692.18C1684.68,1687.09 1681.28,1684.88 1679.21,1683.15L1677.13,1681.43" style="fill:rgb(104,114,118);fill-rule:nonzero;"/>
        </g>
        <g transform="matrix(4.16667,0,0,4.16667,0,0)">
            <path d="M1597.09,1628.86C1597.09,1628.86 1572.44,1619.3 1559.86,1628.86C1559.86,1628.86 1577.47,1626.09 1581.49,1628.86C1585.52,1631.63 1579.76,1633.25 1579.76,1633.25C1579.76,1633.25 1564.15,1632.33 1551.56,1641.94C1551.56,1641.94 1562.88,1639.11 1574.32,1640.52C1574.32,1640.52 1568.65,1645.96 1566.89,1652.75L1566.89,1643.51C1566.89,1643.51 1561.62,1648.98 1559.11,1660.3C1556.59,1671.62 1557.67,1677.21 1557.67,1677.21C1557.67,1677.21 1558.85,1665.11 1564.64,1658.93C1564.64,1658.93 1560.81,1673.26 1562.88,1683.15C1564.95,1693.05 1567.2,1695.5 1567.2,1695.5C1567.2,1695.5 1568.66,1681.55 1570.93,1675.58C1573.19,1669.61 1579.73,1655.52 1581.74,1654.26C1583.76,1653.01 1578.47,1655.27 1587.03,1645.21C1595.58,1635.15 1598.85,1631.37 1598.85,1631.37" style="fill:rgb(191,211,214);fill-rule:nonzero;"/>
        </g>
        <g transform="matrix(4.16667,0,0,4.16667,0,0)">
            <path d="M1490.77,1684.85C1490.77,1684.85 1493.96,1689.22 1497.23,1690.99C1497.23,1690.99 1486.42,1691.61 1474.09,1689.16C1474.09,1689.16 1480.88,1695.15 1491.7,1699.36C1502.51,1703.56 1505.78,1704.97 1505.78,1704.97C1505.78,1704.97 1485.63,1705.05 1475.35,1701.13C1475.35,1701.13 1481.51,1708.59 1488.11,1711.86L1475.85,1710.1C1475.85,1710.1 1484.91,1717.5 1502.26,1721.52C1519.62,1725.55 1542.03,1714.44 1542.03,1714.44C1542.03,1714.44 1531.19,1716.39 1527.41,1716.64C1523.64,1716.89 1515.34,1716.39 1514.59,1715.63C1513.83,1714.88 1511.57,1715.26 1512.32,1714.44C1513.08,1713.62 1518.11,1708.7 1518.11,1708.7C1518.11,1708.7 1519.37,1709.53 1519.87,1707.93C1520.37,1706.33 1521.31,1704.08 1521.31,1704.08C1521.31,1704.08 1519.87,1703.73 1517.1,1702.26C1514.33,1700.79 1508.83,1700.76 1508.06,1699.02C1507.29,1697.27 1509.3,1698 1509.81,1695.5C1510.31,1693 1512.32,1690.99 1509.56,1690.23C1506.79,1689.48 1501.51,1689.24 1499.24,1688.1L1496.98,1686.96" style="fill:rgb(191,211,214);fill-rule:nonzero;"/>
        </g>
        <g transform="matrix(4.16667,0,0,4.16667,0,0)">
            <path d="M1564.95,1693.05C1564.95,1693.05 1564.51,1707.27 1571.68,1716.52C1571.68,1716.52 1554.33,1728.22 1541.12,1744.06C1541.12,1744.06 1549.04,1739.92 1556.4,1735.29C1556.4,1735.29 1546.4,1746.08 1537.73,1758.27L1552.06,1747.18C1552.06,1747.18 1538.48,1765.35 1535.84,1769.42C1535.84,1769.42 1551.31,1754.59 1559.99,1749.51C1568.66,1744.43 1572.44,1741.27 1574.32,1744.55C1576.21,1747.83 1578.85,1750.66 1574.32,1754.34C1569.8,1758.02 1557.68,1767.56 1552.82,1777.43L1566.4,1766.32C1566.4,1766.32 1555.32,1783.46 1556.33,1782.81C1557.35,1782.16 1572.06,1770.84 1581.87,1764.81C1591.68,1758.77 1601.49,1769.15 1603.75,1788.67C1606.02,1808.2 1601.87,1823.1 1592.43,1824.14C1583,1825.17 1573.19,1815.55 1573.19,1816.78C1573.19,1818.01 1576.85,1827.44 1574.46,1833.1C1572.06,1838.76 1569.04,1845.92 1568.29,1851.96C1567.53,1858 1570.78,1869.69 1570.1,1871.96C1569.42,1874.22 1570.93,1886.24 1572.06,1886.64C1573.19,1887.05 1576.96,1895.16 1576.21,1890.9C1575.46,1886.64 1583.76,1880.66 1585.26,1883.65C1586.77,1886.64 1590.17,1892.71 1592.06,1895.16C1593.94,1897.61 1607.91,1908.55 1609.04,1910.06C1610.17,1911.57 1606.77,1923.65 1609.04,1925.53C1611.3,1927.42 1616.07,1930.06 1617.65,1931.19C1619.22,1932.32 1627.64,1937.98 1627.64,1937.98C1627.64,1937.98 1631.67,1939.49 1635.07,1940.62C1638.46,1941.76 1654.78,1936.47 1657.94,1936.66C1661.1,1936.85 1665.91,1937.98 1668.97,1936.66C1672.04,1935.34 1682.98,1929.88 1684.3,1924.78C1685.62,1919.67 1690.53,1916.86 1694.68,1913.46C1698.83,1910.06 1709.77,1901.01 1712.22,1898.75C1714.67,1896.48 1721.47,1887.43 1721.09,1884.41C1720.71,1881.39 1716.18,1871.96 1718.82,1861.02C1721.47,1850.08 1726.02,1836.98 1726.75,1833.1C1727.48,1829.22 1724.86,1816.78 1724.86,1816.78L1716.94,1816.78L1710.52,1824.14C1710.52,1824.14 1709.02,1842.15 1702.98,1855.36C1696.94,1868.56 1688.26,1874.98 1688.26,1874.98C1688.26,1874.98 1680.06,1872.71 1675.49,1870.83C1670.91,1868.94 1654.51,1870.83 1651.58,1870.45C1648.65,1870.07 1639.12,1867.05 1636.9,1868.19C1634.69,1869.32 1633.05,1872.33 1627.64,1872.33C1622.24,1872.33 1613.11,1873.84 1612.96,1869.69C1612.81,1865.54 1614.69,1847.91 1614.69,1847.91C1614.69,1847.91 1621.77,1825.76 1621.81,1820C1621.86,1814.23 1621.02,1803.67 1621.25,1796.5C1621.48,1789.33 1622.1,1779.76 1619.34,1774.93C1616.58,1770.09 1617.33,1773.11 1611.3,1764.81C1605.26,1756.51 1602.24,1751.36 1599.6,1749.41C1596.96,1747.45 1588.28,1730.04 1583.76,1722.9C1579.23,1715.76 1575.08,1707.39 1574.32,1704.78C1573.57,1702.18 1564.95,1693.05 1564.95,1693.05Z" style="fill:rgb(191,211,214);fill-rule:nonzero;"/>
        </g>
        <g transform="matrix(4.16667,0,0,4.16667,0,0)">
            <path d="M1646.88,1873.53C1646.88,1873.53 1641.35,1873.59 1638.84,1879.88C1636.32,1886.17 1644.12,1889.19 1644.12,1889.19L1656.2,1889.19C1656.2,1889.19 1663.74,1891.11 1664.5,1890.9C1665.25,1890.7 1681.38,1894.47 1681.38,1894.47C1681.38,1894.47 1661.95,1894.97 1657.94,1897.24C1657.94,1897.24 1660.51,1905.54 1654.45,1917.36C1648.4,1929.18 1631.29,1940 1632.3,1939.74C1633.31,1939.49 1632.26,1931.7 1632.26,1931.7C1632.26,1931.7 1622.99,1931.19 1618.72,1931.95C1614.44,1932.7 1606.9,1933.2 1607.4,1927.67C1607.9,1922.14 1609.87,1920.57 1607.38,1916.32C1604.88,1912.08 1602.87,1908.81 1599.35,1904.78C1595.83,1900.76 1591.3,1893.63 1591.05,1890.9C1590.8,1888.18 1586.77,1886.64 1586.77,1886.64C1586.77,1886.64 1584.51,1886.17 1580.99,1887.17C1577.47,1888.18 1572.44,1883.15 1571.68,1879.38C1570.93,1875.61 1569.17,1869.07 1569.17,1864.79C1569.17,1860.51 1571.93,1845.92 1572.94,1843.91C1573.95,1841.9 1576.46,1838.13 1575.46,1835.61C1574.46,1833.1 1575.71,1823.04 1575.71,1823.04C1575.71,1823.04 1577.97,1835.11 1589.04,1838.63C1600.1,1842.15 1604.13,1833.1 1604.13,1833.1C1604.13,1833.1 1601.81,1835.22 1594.07,1836.37C1594.07,1836.37 1603.12,1831.84 1607.9,1823.04C1612.68,1814.23 1615.02,1793.95 1611.67,1779.02C1608.33,1764.08 1596.69,1756.11 1591.3,1754.34C1585.91,1752.57 1578.21,1759.4 1578.21,1759.4C1578.21,1759.4 1584.26,1752.53 1583.25,1746.79C1582.25,1741.04 1580.97,1736.44 1576.96,1736.01C1572.96,1735.58 1566.89,1739.03 1566.89,1739.03L1582.5,1727.32C1582.5,1727.32 1583,1727.96 1587.28,1732.49C1591.55,1737.01 1597.34,1739.03 1602.12,1744.06C1606.9,1749.09 1613.69,1755.63 1615.45,1762.17C1617.21,1768.71 1619.95,1771.47 1620.34,1778.52C1620.73,1785.56 1620.89,1788.33 1621.81,1800.4C1622.74,1812.47 1614.95,1859.76 1614.95,1862.78C1614.95,1865.8 1617.65,1872.53 1617.65,1872.53C1617.65,1872.53 1624.25,1872.84 1627.64,1872.33C1631.04,1871.83 1633.56,1869.57 1636.32,1869.57C1639.09,1869.57 1642.86,1870.32 1644.37,1870.57L1645.88,1870.83" style="fill:rgb(148,171,175);fill-rule:nonzero;"/>
        </g>
        <g transform="matrix(4.16667,0,0,4.16667,0,0)">
            <path d="M1585.26,1581.45C1585.26,1581.45 1606.77,1570.69 1618.66,1574.28C1630.54,1577.86 1657.14,1605.4 1661.1,1606.54C1665.06,1607.67 1671.66,1606.35 1679.59,1598.8C1679.59,1598.8 1680.91,1607.86 1672.61,1615.03C1672.61,1615.03 1677.89,1612.95 1685.81,1613.71C1685.81,1613.71 1692.04,1609.74 1691.47,1599.18C1691.47,1599.18 1695.62,1602.39 1696,1607.67C1696.38,1612.95 1695.06,1615.03 1695.06,1615.03C1695.06,1615.03 1703.36,1615.4 1710.52,1618.42C1710.52,1618.42 1717.32,1613.71 1716.18,1603.71C1716.18,1603.71 1720.33,1604.46 1721.28,1613.14C1722.22,1621.82 1715.05,1626.34 1715.05,1626.34L1718.07,1630.68C1718.07,1630.68 1704.87,1622 1693.55,1621.06C1682.23,1620.12 1673.74,1627.48 1670.53,1630.68C1670.53,1630.68 1675.25,1631.25 1676.38,1635.96C1677.51,1640.68 1674.3,1638.04 1663.36,1637.66C1652.42,1637.29 1642.61,1643.51 1642.61,1643.51C1642.61,1643.51 1644.31,1638.61 1650.91,1634.83C1650.91,1634.83 1653.18,1633.13 1654.5,1627.66C1654.5,1627.66 1639.03,1632 1626.01,1626.91C1626.01,1626.91 1636.76,1628.04 1647.89,1623.51C1647.89,1623.51 1638.08,1621.44 1630.92,1617.29C1630.92,1617.29 1639.41,1616.91 1647.71,1614.65C1647.71,1614.65 1634.31,1599.56 1628.28,1596.16C1622.24,1592.77 1610.17,1592.77 1610.17,1592.77C1610.17,1592.77 1611.86,1597.48 1617.9,1604.27C1623.94,1611.06 1626.39,1613.33 1626.39,1613.33C1626.39,1613.33 1617.9,1609.74 1609.04,1602.39C1600.17,1595.03 1596.21,1590.12 1596.21,1590.12C1596.21,1590.12 1605.45,1583.14 1616.96,1583.71C1616.96,1583.71 1614.13,1581.26 1608.28,1580.31C1602.43,1579.37 1585.26,1581.45 1585.26,1581.45Z" style="fill:rgb(15,15,39);fill-rule:nonzero;"/>
        </g>
        <g transform="matrix(4.16667,0,0,4.16667,0,0)">
            <path d="M1629.22,1563.71C1629.22,1563.71 1608.66,1549.19 1593.19,1548.06C1593.19,1548.06 1581.68,1551.64 1572.63,1558.62C1563.57,1565.6 1566.4,1568.43 1567.53,1571.64C1568.66,1574.84 1572.81,1587.48 1572.81,1587.48C1572.81,1587.48 1558.85,1572.39 1557.91,1567.77C1556.97,1563.15 1558.67,1558.62 1564.14,1553.72C1569.61,1548.81 1586.77,1538.81 1591.3,1538.81C1595.83,1538.81 1614.69,1543.72 1629.22,1563.71Z" style="fill:rgb(15,15,39);fill-rule:nonzero;"/>
        </g>
        <g transform="matrix(4.16667,0,0,4.16667,0,0)">
            <path d="M1815.98,1712.37C1825.6,1726.33 1821.45,1740.47 1821.45,1740.47C1820.88,1744.43 1823.14,1754.34 1823.14,1754.34C1818.05,1749.15 1809.75,1735.76 1809.75,1735.76C1810.51,1742.36 1814.84,1754.34 1814.84,1754.34C1814.09,1761.04 1811.26,1766.88 1811.26,1766.88C1809,1758.96 1801.64,1749.91 1801.64,1749.91C1801.64,1749.91 1805.98,1756.51 1803.9,1769.34C1801.83,1782.16 1793.34,1791.41 1793.34,1791.41C1793.34,1791.41 1794.47,1783.67 1793.53,1777.82C1792.58,1771.98 1790.32,1767.64 1790.32,1767.64C1790.51,1772.73 1789.94,1778.39 1789.94,1778.39C1781.83,1789.71 1764.48,1795.37 1764.48,1795.37C1766.74,1791.78 1775.98,1777.64 1775.98,1777.64C1775.98,1777.64 1767.12,1782.73 1756.07,1796.31C1745.02,1809.89 1726.75,1833.1 1726.75,1833.1C1727.88,1824.04 1734.29,1811.21 1734.29,1811.21C1750.14,1797.52 1758.82,1775.75 1758.82,1775.75C1770.51,1770.28 1783.15,1760.66 1783.15,1760.66C1783.15,1760.66 1789,1759.53 1797.87,1742.17C1806.73,1724.82 1805.41,1708.97 1805.41,1708.97C1806.54,1701.42 1803.34,1694.82 1803.34,1694.82C1805.98,1686.52 1802.39,1675.58 1802.39,1675.58C1824.84,1693.5 1827.11,1723.68 1827.11,1723.68C1822.77,1715.01 1815.98,1712.37 1815.98,1712.37ZM1712.79,1858C1713.35,1878.18 1715.05,1884.97 1715.05,1884.97C1715.05,1884.97 1710.71,1892.52 1703.36,1901.2C1703.36,1901.2 1703.73,1894.22 1701.47,1887.8C1701.47,1887.8 1693.67,1915.6 1677.32,1927.99C1677.32,1927.99 1679.78,1916.67 1678.08,1908.55C1678.08,1908.55 1664.46,1928.2 1636.76,1936.66C1636.76,1936.66 1645.07,1930.44 1647.33,1910.82C1647.33,1910.82 1633.75,1923.08 1614.88,1925.16C1614.88,1925.16 1628.46,1896.86 1600.92,1879.5C1600.92,1879.5 1605.07,1884.97 1607.15,1890.82C1607.15,1890.82 1604.32,1887.24 1599.98,1883.84C1599.98,1883.84 1603.19,1889.31 1604.88,1894.03C1606.58,1898.75 1607.71,1901.76 1607.71,1901.76C1607.71,1901.76 1602.43,1900.44 1594.32,1884.6C1586.21,1868.75 1589.41,1850.45 1589.41,1850.45C1589.41,1850.45 1584.13,1857.43 1583.19,1865.92C1583.19,1865.92 1578.1,1871.01 1575.08,1878.56C1575.08,1878.56 1568.29,1865.36 1576.02,1844.98L1579.23,1838.95L1580.36,1845.55C1580.36,1845.55 1584.7,1833.85 1572.81,1810.46C1560.93,1787.07 1520.37,1771.98 1493.58,1775.94C1493.58,1775.94 1481.13,1777.45 1471.32,1773.86C1471.32,1773.86 1480.19,1772.35 1479.62,1772.35C1479.06,1772.35 1462.27,1769.9 1454.35,1764.24C1454.35,1764.24 1463.97,1765.75 1472.64,1761.6C1472.64,1761.6 1480.95,1759.9 1486.79,1757.26C1486.79,1757.26 1463.24,1756.55 1450.38,1749.15C1450.38,1749.15 1458.5,1748.96 1462.46,1746.89C1462.46,1746.89 1469.63,1747.83 1475.47,1747.64C1475.47,1747.64 1470.95,1743.68 1467.93,1742.17C1464.91,1740.66 1440.2,1733.3 1423.41,1714.63C1423.41,1714.63 1432.65,1716.7 1441.33,1716.33C1441.33,1716.33 1453.59,1720.69 1461.7,1721.52C1461.7,1721.52 1436.36,1710.95 1424.92,1695.58C1424.92,1695.58 1438.5,1696.71 1448.12,1694.44C1448.12,1694.44 1458.5,1697.46 1466.99,1698.22C1466.99,1698.22 1443.26,1685.95 1431.71,1676.9C1431.71,1676.9 1445.1,1670.11 1453.78,1654.26C1453.78,1654.26 1460.19,1648.98 1465.85,1640.3C1465.85,1640.3 1449.84,1652.86 1431.52,1653.51C1431.52,1653.51 1441.14,1646.91 1446.99,1638.79C1446.99,1638.79 1471.89,1634.45 1483.96,1616.16C1483.96,1616.16 1475.29,1623.33 1459.63,1627.85C1443.97,1632.38 1437.56,1629.36 1437.56,1629.36C1437.56,1629.36 1447.74,1624.65 1455.67,1617.67C1463.59,1610.69 1481.89,1596.73 1496.41,1588.05C1510.94,1579.37 1517.73,1577.67 1517.73,1577.67C1517.73,1577.67 1502.45,1576.16 1479.81,1587.48C1479.81,1587.48 1474.72,1577.86 1474.34,1567.3C1474.34,1567.3 1478.3,1570.13 1481.89,1571.83C1481.89,1571.83 1484.34,1570.32 1479.62,1564.85C1474.91,1559.37 1469.25,1553.72 1462.83,1540.89C1456.42,1528.06 1458.87,1518.25 1458.87,1518.25C1458.87,1518.25 1471.7,1516.74 1486.98,1521.65C1502.26,1526.55 1514.33,1529 1517.92,1529.19C1517.92,1529.19 1510.37,1532.4 1508.11,1533.53C1508.11,1533.53 1515.84,1535.61 1520.75,1533.72C1525.65,1531.83 1560.74,1517.68 1597.34,1510.33C1633.93,1502.97 1656.95,1508.82 1679.02,1519.76C1701.09,1530.7 1702.41,1540.25 1709.02,1547.27C1715.62,1554.28 1726.94,1558.24 1726.94,1558.24C1726.94,1558.24 1720.52,1551.26 1717.32,1545.98C1714.11,1540.7 1712.03,1535.79 1712.03,1535.79C1712.03,1535.79 1735.99,1534.47 1743.91,1543.34C1751.84,1552.21 1756.37,1559.94 1760.89,1568.24C1765.42,1576.54 1767.31,1578.99 1767.31,1578.99L1759.76,1582.39C1759.76,1582.39 1763.34,1585.22 1768.82,1583.52C1774.29,1581.82 1781.27,1579.37 1783.91,1581.07C1786.55,1582.77 1794.85,1594.84 1794.66,1598.05C1794.47,1601.25 1792.21,1608.42 1792.21,1608.42C1792.21,1608.42 1789,1605.78 1777.12,1610.69C1765.23,1615.59 1755.04,1622.95 1751.27,1619.93C1747.5,1616.91 1740.14,1611.44 1736.93,1609.37C1736.93,1609.37 1733.16,1613.14 1733.73,1613.14C1734.29,1613.14 1735.99,1618.23 1734.67,1623.33C1733.35,1628.42 1729.01,1631.44 1729.01,1631.44C1729.01,1631.44 1734.1,1632.76 1738.25,1628.8C1738.25,1628.8 1743.91,1625.26 1749.57,1631.65C1755.23,1638.04 1759.95,1654.64 1759.95,1654.64C1759.95,1654.64 1754.86,1652 1752.4,1649.36C1752.4,1649.36 1753.35,1654.45 1758.25,1658.6C1763.16,1662.75 1766.55,1665.96 1768.25,1670.49C1769.95,1675.01 1769.95,1679.92 1769.19,1681.05C1768.44,1682.18 1761.39,1686.82 1743.65,1693.05C1725.92,1699.27 1726.75,1696.95 1719.01,1693.05C1713.28,1690.15 1695.12,1677.23 1687.38,1669.35C1680.34,1662.19 1677.51,1659.73 1673.36,1653.89C1669.21,1648.04 1665.82,1643.51 1666.57,1646.15C1667.33,1648.79 1671.29,1654.45 1671.29,1656.34C1671.29,1658.22 1671.47,1669.17 1673.93,1684.07C1676.38,1698.97 1681.66,1704.25 1682.79,1703.5C1683.93,1702.74 1687.51,1698.03 1691.47,1700.29C1695.43,1702.56 1698.64,1709.16 1696,1711.8C1693.36,1714.44 1689.96,1712.74 1690.15,1715.38C1690.34,1718.02 1700.71,1732.93 1702.04,1736.32C1703.36,1739.72 1699.58,1741.42 1696.56,1741.42C1693.55,1741.42 1677.13,1739.91 1666.95,1741.42L1670.91,1738.96C1670.91,1738.96 1665.25,1739.34 1655.82,1741.42C1646.39,1743.49 1629.22,1751.98 1612.62,1745.57C1596.02,1739.15 1590.74,1730.29 1587.72,1718.97C1587.72,1718.97 1595.83,1725 1609.41,1724.25C1609.41,1724.25 1608.28,1721.42 1603,1718.4C1597.72,1715.38 1586.77,1712.55 1580.74,1704.63C1574.7,1696.71 1570.74,1676.33 1584.51,1663.13C1584.51,1663.13 1591.3,1673.69 1601.11,1677.47C1601.11,1677.47 1601.49,1675.58 1598.28,1672.18C1595.07,1668.79 1589.41,1662 1589.23,1654.07C1589.04,1646.15 1597.15,1636.91 1611.3,1638.79C1625.45,1640.68 1639.22,1657.85 1639.22,1657.85C1639.22,1657.85 1636.01,1646.53 1623.56,1636.72C1611.11,1626.91 1589.23,1622 1569.61,1624.65C1569.61,1624.65 1586.21,1625.78 1591.49,1628.98C1591.49,1628.98 1590.74,1631.81 1588.09,1633.13C1586.89,1633.73 1584.8,1633.56 1582.11,1633.38C1578.87,1633.16 1574.79,1632.95 1570.36,1634.08C1570.36,1634.08 1580.93,1634.64 1585.64,1637.47C1585.64,1637.47 1575.08,1644.45 1576.02,1657.28C1576.02,1657.28 1567.16,1664.45 1564.51,1677.09C1561.87,1689.73 1568.1,1706.14 1573.38,1712.55L1576.96,1720.29C1576.96,1720.29 1569.61,1724.82 1563.76,1730.66C1563.76,1730.66 1573.76,1725.57 1578.1,1723.68L1578.85,1725.76C1578.85,1725.76 1566.59,1733.3 1558.48,1744.25C1558.48,1744.25 1573.19,1734.62 1580.93,1731.8C1580.93,1731.8 1583.57,1739.15 1589.98,1745C1589.98,1745 1577.15,1753.49 1572.44,1765.56C1572.44,1765.56 1583.19,1752.92 1591.87,1748.77C1591.87,1748.77 1606.58,1758.96 1613.75,1771.98C1620.92,1784.99 1617.15,1808.2 1612.81,1825.17C1608.47,1842.15 1605.26,1848.19 1607.52,1863.09C1609.79,1877.99 1616.2,1878.56 1620.35,1879.32C1624.5,1880.07 1629.6,1874.22 1629.6,1874.22C1629.6,1874.22 1652.04,1871.2 1677.7,1877.43C1677.7,1877.43 1684.49,1881.77 1694.87,1877.81C1705.24,1873.84 1706.19,1864.22 1706.56,1855.36C1706.56,1855.36 1712.6,1844.98 1712.41,1824.61L1720.15,1820.65C1720.15,1820.65 1712.22,1837.81 1712.79,1858ZM1772.9,1564.47C1769.13,1556.17 1761.84,1545.6 1761.84,1545.6C1762.59,1536.05 1759.19,1527.49 1759.19,1527.49C1776.68,1543.84 1772.9,1564.47 1772.9,1564.47ZM1720.05,1795.75C1721.47,1784.62 1720.05,1781.88 1721.18,1777.35C1722.31,1772.83 1726.09,1771.79 1727.12,1773.96C1728.16,1776.13 1727.5,1780.84 1725.99,1785.65C1725.99,1785.65 1730.43,1779.99 1732.22,1772.92C1734.01,1765.85 1742.88,1770.84 1744.86,1776.03C1746.84,1781.22 1738.25,1804.99 1712.22,1816.78C1712.22,1816.78 1718.64,1806.88 1720.05,1795.75ZM1704.87,1788.67C1706,1783.48 1708.64,1768.3 1708.64,1768.3L1704.87,1771.6C1687.98,1767.26 1676.76,1768.02 1676.76,1768.02C1678.08,1764.24 1678.08,1758.21 1678.08,1758.21C1678.08,1758.21 1676.76,1761.79 1671.85,1768.2C1666.95,1774.62 1659.78,1779.33 1659.78,1779.33C1663.93,1769.9 1664.87,1754.34 1664.87,1754.34C1665.23,1750.35 1675.34,1748.4 1676.95,1749.62C1678.55,1750.85 1678.45,1754.34 1678.45,1754.34C1678.45,1754.34 1680.91,1751.7 1682.23,1753.26C1683.55,1754.82 1680.72,1758.11 1680.72,1758.11L1681,1761.41L1683.55,1759.34C1683.55,1759.34 1689.4,1750.19 1691.21,1754.34C1693.03,1758.49 1690.72,1761.88 1690.72,1761.88L1691.66,1763.96L1695.43,1761.88C1695.43,1761.88 1703.92,1755.28 1705.05,1757.26C1706.19,1759.24 1703.64,1762.45 1703.64,1762.45L1703.83,1764.81L1707.98,1762.73C1707.98,1762.73 1712.98,1756.6 1714.27,1757.92C1715.57,1759.24 1713.07,1763.87 1713.07,1763.87L1713.26,1766.22C1713.26,1766.22 1717.98,1759.43 1721.18,1760.94C1724.39,1762.45 1721.94,1769.62 1717.5,1775.37C1713.07,1781.13 1704.87,1788.67 1704.87,1788.67ZM1692.04,1852.91C1697.04,1848.75 1700.81,1843.76 1700.81,1843.76C1700.81,1843.76 1693.64,1849.13 1689.96,1851.11C1689.96,1851.11 1687.04,1847.62 1690.62,1843.85C1694.21,1840.08 1703.54,1834.89 1707.98,1829.98C1707.98,1829.98 1708.45,1843.64 1697.7,1857.14C1686.94,1870.64 1681.28,1868 1681.38,1864.22C1681.47,1860.45 1687.04,1857.05 1692.04,1852.91ZM1630.92,1796.5C1630.92,1796.5 1633.93,1781.03 1630.92,1767.64C1630.79,1767.06 1631.48,1762.17 1635.63,1760.66C1639.78,1759.15 1639.59,1771.41 1637.9,1777.45C1637.9,1777.45 1641.29,1774.24 1643.37,1767.26C1645.44,1760.28 1644.12,1757.83 1645.63,1756.32C1647.14,1754.81 1652.42,1751.79 1654.12,1754.34C1655.82,1756.88 1651.48,1782.54 1630.92,1796.5ZM1622.71,1868.19C1619.6,1867.05 1616.77,1863.94 1617.9,1858.38C1619.03,1852.81 1622.05,1848.85 1627.8,1841.21C1633.56,1833.57 1636.2,1824.14 1636.2,1824.14C1636.2,1824.14 1639.03,1836.96 1636.76,1849.04C1634.5,1861.11 1629.69,1863.37 1629.69,1863.37C1631.77,1858.56 1632.71,1849.6 1632.71,1849.6C1630.26,1861.11 1622.71,1868.19 1622.71,1868.19ZM1645.35,1841.68C1644.78,1829.04 1639.97,1818.48 1639.97,1818.48C1640.54,1813.38 1639.97,1801.31 1639.97,1801.31C1646.76,1796.31 1653.65,1787.54 1653.65,1787.54C1655.54,1787.45 1659.78,1787.26 1659.78,1787.26C1663.93,1798.86 1660.34,1812.16 1660.34,1812.16C1670.15,1798.95 1665.44,1783.39 1665.44,1783.39C1668.65,1781.22 1674.21,1776.79 1674.21,1776.79C1677.51,1779.05 1682.13,1786.97 1680.53,1793.1C1678.93,1799.22 1674.12,1806.97 1675.34,1812.91C1676.57,1818.85 1680.06,1820.74 1680.06,1820.74C1669.87,1826.68 1657.8,1822.91 1657.8,1822.91C1672.14,1834.13 1688.45,1819.89 1690.06,1819.23C1691.66,1818.57 1696.09,1815.84 1697.7,1821.02C1699.3,1826.21 1695.72,1833.85 1692.41,1836.3C1692.2,1836.46 1691.99,1836.63 1691.77,1836.8C1688.56,1839.33 1684.59,1843.38 1684.59,1843.38C1663.93,1848.28 1645.35,1841.68 1645.35,1841.68ZM1662.33,1858.19L1660.25,1859.7C1660.25,1859.7 1660.91,1864.35 1658.08,1865.84C1655.25,1867.34 1652.42,1865.45 1652.8,1862.62C1653.18,1859.79 1653.46,1859.32 1653.46,1859.32L1651.76,1855.83L1649.4,1858C1649.4,1858 1650.25,1861.77 1647.52,1864.41C1644.78,1867.05 1640.91,1863.47 1641.1,1860.64C1641.1,1860.64 1643.65,1856.39 1645.16,1847.91C1645.16,1847.91 1665.34,1851.77 1679.49,1849.7C1679.49,1849.7 1674.87,1855.07 1673.27,1857.9C1673.27,1857.9 1671,1863.94 1666.85,1865.54C1662.7,1867.15 1663.27,1861.77 1663.27,1861.77L1662.33,1858.19ZM1776.36,1754.62C1776.36,1754.62 1762.21,1764.81 1755.61,1764.81C1749.01,1764.81 1746.11,1759.71 1746.11,1759.71C1749.99,1759.34 1751.46,1757.07 1751.46,1757.07C1751.46,1757.07 1745.05,1758.96 1738.82,1756.32C1732.6,1753.68 1722.41,1750.28 1718.07,1748.58C1713.73,1746.89 1714.3,1741.42 1714.3,1741.42C1714.3,1741.42 1721.09,1740.85 1726.56,1737.08C1732.03,1733.3 1735.8,1727.83 1734.67,1726.14C1733.54,1724.44 1738.07,1721.23 1742.41,1719.16C1746.74,1717.08 1748.63,1719.34 1754.29,1716.14C1759.95,1712.93 1777.3,1686.52 1777.87,1681.24C1778.44,1675.96 1775.23,1664.07 1775.23,1664.07C1786.22,1663.98 1797.49,1673.32 1794.66,1690.86C1791.84,1708.4 1785.79,1713.5 1783.34,1714.44C1780.89,1715.38 1779.58,1721.86 1779.58,1721.86C1792.05,1717.77 1797.87,1712.18 1797.87,1712.18C1797.87,1712.18 1796.36,1730.85 1786.74,1738.21C1777.12,1745.57 1758.25,1750.47 1758.25,1750.47C1765.23,1755.56 1776.36,1754.62 1776.36,1754.62ZM1799.94,1647.85C1800.51,1651.81 1793.15,1659.73 1793.15,1659.73C1793.15,1659.73 1779.57,1653.7 1772.4,1652.75L1767.68,1645.4C1767.68,1645.4 1772.78,1644.64 1776.36,1642.38C1776.36,1642.38 1766.55,1638.98 1764.85,1636.91C1763.16,1634.83 1759.19,1627.48 1759.19,1627.48C1759.19,1627.48 1765.8,1622.57 1771.64,1621.82C1777.49,1621.06 1782.96,1622.57 1782.96,1622.57C1782.96,1622.57 1779.95,1627.66 1774.85,1629.93C1769.76,1632.19 1767.5,1632.95 1767.5,1632.95C1767.5,1632.95 1771.46,1634.45 1779,1630.49C1786.55,1626.53 1788.62,1621.61 1788.62,1621.61C1788.62,1621.61 1784.1,1618.23 1779.76,1617.1C1779.76,1617.1 1781.27,1616.16 1784.85,1616.35C1788.43,1616.53 1793.34,1620.31 1793.34,1620.31C1793.34,1620.31 1791.45,1627.29 1791.26,1628.23C1791.08,1629.17 1799.38,1643.89 1799.94,1647.85ZM1837.29,1756.7C1837.29,1756.7 1842.76,1747.45 1837.29,1714.06C1831.82,1680.67 1812.39,1660.3 1812.39,1660.3C1812.39,1660.3 1815.03,1654.45 1814.47,1651.06C1813.9,1647.66 1801.07,1624.08 1801.07,1624.08C1801.07,1624.08 1807.86,1608.04 1807.68,1605.78C1807.49,1603.52 1799.56,1578.43 1797.11,1575.6C1794.66,1572.77 1788.25,1572.01 1788.25,1572.01C1788.25,1572.01 1788.43,1552.96 1775.61,1533.53C1762.78,1514.1 1749.2,1513.16 1748.44,1514.48C1747.69,1515.8 1746.18,1522.59 1745.99,1526.17C1745.99,1526.17 1727.88,1518.25 1702.6,1515.99C1702.6,1515.99 1679.4,1498.82 1646.2,1494.67C1613,1490.52 1578.1,1498.63 1554.7,1505.61C1531.31,1512.59 1519.43,1515.61 1518.11,1515.8C1516.79,1515.99 1489.81,1508.82 1472.46,1506.55C1455.1,1504.29 1451.33,1504.1 1448.69,1507.31C1446.05,1510.52 1443.22,1534.66 1456.42,1557.3C1456.42,1557.3 1457.36,1578.43 1463.21,1594.09C1463.21,1594.09 1454.85,1600.37 1448.44,1606.98C1442.02,1613.58 1431.58,1622.07 1412.84,1629.36C1412.84,1629.36 1420.2,1637.47 1432.09,1639.36C1432.09,1639.36 1418.5,1652.75 1406.62,1657.47C1406.62,1657.47 1415.86,1663.51 1428.5,1663.51C1428.5,1663.51 1417.75,1670.11 1407.37,1672.18C1407.37,1672.18 1412.47,1682.18 1421.33,1685.2C1421.33,1685.2 1412.8,1684.45 1407.94,1681.24C1407.94,1681.24 1408.69,1693.31 1414.92,1700.86C1414.92,1700.86 1407.27,1695.76 1403.08,1688.79C1403.08,1688.79 1403.98,1721.42 1439.63,1741.79C1439.63,1741.79 1432.46,1742.17 1426.62,1738.4C1426.62,1738.4 1429.26,1748.77 1445.1,1757.26C1445.1,1757.26 1430.58,1755.63 1425.29,1752.61C1425.29,1752.61 1441.9,1776.57 1458.5,1781.28C1458.5,1781.28 1468.05,1789.33 1492.45,1791.09C1492.45,1791.09 1518.11,1786.5 1539.8,1800.46C1561.5,1814.42 1563.76,1837.62 1563.76,1837.62C1563.76,1837.62 1548.1,1884.41 1579.79,1907.05C1579.79,1907.05 1580.93,1898.37 1583.38,1892.33C1583.38,1892.33 1589.98,1906.86 1601.49,1914.03C1601.49,1914.03 1597.34,1926.1 1587.72,1932.32C1587.72,1932.32 1601.02,1943.27 1621.81,1935.72C1621.81,1935.72 1613.75,1941.94 1607.9,1944.59C1607.9,1944.59 1634.31,1958.17 1662.04,1939.68C1662.04,1939.68 1659.4,1944.39 1654.5,1949.39C1654.5,1949.39 1685.81,1952.89 1704.3,1921.19C1704.3,1921.19 1719.2,1911.38 1729.39,1890.45C1729.39,1890.45 1718.82,1843.28 1764.48,1806.88C1764.48,1806.88 1775.23,1806.88 1786.17,1798.01C1786.17,1798.01 1784.28,1805.56 1779.19,1811.21C1779.19,1811.21 1798.43,1810.84 1812.2,1786.12C1812.2,1786.12 1821.26,1779.15 1824.09,1766.13C1824.09,1766.13 1826.73,1770.67 1832.58,1771.8C1832.58,1771.8 1829.37,1758.96 1831.26,1748.4C1831.26,1748.4 1834.84,1752.17 1837.29,1756.7Z" style="fill:rgb(15,15,39);fill-rule:nonzero;"/>
        </g>
        <g transform="matrix(4.16667,0,0,4.16667,0,0)">
            <path d="M1684.3,1895.16C1684.3,1895.16 1666,1890.26 1650.35,1892.9C1634.69,1895.54 1630.92,1895.49 1631.67,1892.12C1632.43,1888.75 1660.72,1880.26 1684.3,1895.16Z" style="fill:rgb(15,15,39);fill-rule:nonzero;"/>
        </g>
        <g transform="matrix(4.16667,0,0,4.16667,0,0)">
            <path d="M1554.52,1704.44C1554.52,1704.44 1546.03,1717.08 1527.16,1718.21C1508.3,1719.34 1500,1712.74 1500,1712.74C1500,1712.74 1513.2,1708.97 1519.05,1704.44C1519.05,1704.44 1505.85,1704.63 1498.11,1694.26C1498.11,1694.26 1503.39,1693.69 1507.92,1692.93C1507.92,1692.93 1496.6,1690.67 1488.11,1682.56C1488.11,1682.56 1503.02,1684.07 1513.58,1673.13C1524.14,1662.19 1528.67,1658.6 1528.67,1658.6C1528.67,1658.6 1519.81,1657.85 1514.15,1653.7C1514.15,1653.7 1531.31,1645.21 1540.56,1635.02C1540.56,1635.02 1534.52,1646.15 1525.46,1652.38C1525.46,1652.38 1529.62,1653.89 1533.2,1654.07C1533.2,1654.07 1542.07,1649.36 1550.74,1648.79C1550.74,1648.79 1538.1,1655.77 1532.07,1661.43C1526.03,1667.09 1515.84,1682.56 1505.28,1685.77C1505.28,1685.77 1520.94,1692.93 1540.18,1681.99C1540.18,1681.99 1532.44,1691.24 1522.45,1692.75C1522.45,1692.75 1517.54,1695.76 1512.45,1697.08C1512.45,1697.08 1517.16,1699.16 1524.9,1699.54C1524.9,1699.54 1537.35,1693.12 1548.67,1692.56C1548.67,1692.56 1536.03,1697.08 1528.86,1702.37C1521.69,1707.65 1520.56,1710.29 1515.09,1712.55C1515.09,1712.55 1531.5,1716.7 1554.52,1704.44Z" style="fill:rgb(15,15,39);fill-rule:nonzero;"/>
        </g>
        <g transform="matrix(4.16667,0,0,4.16667,0,0)">
            <path d="M1613.37,1684.63C1613.37,1684.63 1619.41,1692.37 1624.69,1692.93C1629.97,1693.5 1627.52,1691.99 1623.56,1687.46C1619.6,1682.94 1610.97,1681.94 1613.37,1684.63Z" style="fill:rgb(15,15,39);fill-rule:nonzero;"/>
        </g>
        <g transform="matrix(4.16667,0,0,4.16667,0,0)">
            <path d="M1631.86,1697.08C1631.86,1697.08 1633.93,1700.1 1637.9,1701.24C1641.86,1702.37 1644.5,1703.5 1639.78,1699.16C1635.07,1694.82 1630.12,1695.25 1631.86,1697.08Z" style="fill:rgb(15,15,39);fill-rule:nonzero;"/>
        </g>
        <g transform="matrix(4.16667,0,0,4.16667,0,0)">
            <path d="M1649.03,1702.26C1649.03,1702.26 1655.25,1703.88 1656.2,1706.52C1657.14,1709.16 1655.44,1707.46 1651.67,1706.52C1647.89,1705.57 1646.95,1706.14 1646.76,1704.25C1646.57,1702.37 1646.79,1701.53 1649.03,1702.26Z" style="fill:rgb(15,15,39);fill-rule:nonzero;"/>
        </g>
        <g transform="matrix(4.16667,0,0,4.16667,0,0)">
            <path d="M1621.81,1723.12C1621.81,1723.12 1625.86,1725.19 1631.5,1726.33C1637.14,1727.46 1639.22,1728.78 1635.07,1729.53C1630.92,1730.29 1627.71,1730.29 1622.62,1727.83C1617.52,1725.38 1619.26,1722.01 1621.81,1723.12Z" style="fill:rgb(15,15,39);fill-rule:nonzero;"/>
        </g>
        <g transform="matrix(4.16667,0,0,4.16667,0,0)">
            <path d="M1644.69,1729.97C1644.69,1729.97 1646.57,1731.42 1652.42,1731.23C1658.27,1731.04 1658.78,1728.97 1656.45,1728.21C1654.12,1727.46 1653.37,1728.4 1648.27,1727.27C1643.18,1726.14 1642.16,1729.07 1644.69,1729.97Z" style="fill:rgb(15,15,39);fill-rule:nonzero;"/>
        </g>
        <g transform="matrix(4.16667,0,0,4.16667,0,0)">
            <path d="M1663.36,1729.13C1663.36,1729.13 1667.7,1729.86 1672.23,1729.13C1676.76,1728.4 1676,1725.19 1673.36,1725.19C1670.72,1725.19 1670.91,1726.17 1667.14,1726.44C1663.36,1726.7 1661.1,1727.97 1663.36,1729.13Z" style="fill:rgb(15,15,39);fill-rule:nonzero;"/>
        </g>
        <g transform="matrix(4.16667,0,0,4.16667,0,0)">
            <path d="M1642.68,1674.45C1642.68,1674.45 1645.91,1675.58 1653.31,1684.45C1660.72,1693.31 1664.68,1696.9 1661.1,1695.01C1657.52,1693.12 1650.72,1688.41 1648.65,1687.09C1646.57,1685.77 1647.33,1684.37 1645.07,1684.97C1642.8,1685.58 1640.54,1685.07 1638.84,1683.15C1637.14,1681.24 1636.01,1679.54 1635.63,1680.3C1635.26,1681.05 1633.37,1680.11 1632.43,1679.54C1631.48,1678.98 1628.3,1676.68 1628.3,1676.68C1628.3,1676.68 1627.52,1675.39 1626.39,1675.58C1625.26,1675.77 1623.28,1672.94 1621.81,1671.43C1620.35,1669.92 1620.54,1670.86 1618.28,1668.6C1616.01,1666.34 1613.3,1661.81 1612.96,1659.73C1612.62,1657.66 1615.26,1660.11 1616.58,1661.43C1617.9,1662.75 1619.43,1665.2 1621.4,1665.2C1623.37,1665.2 1627.16,1667.66 1627.72,1667.85C1628.28,1668.03 1629.76,1668.79 1630.9,1670.49C1632.05,1672.18 1633.18,1672.75 1633.18,1671.62C1633.18,1670.49 1632.99,1671.05 1636.01,1672.18C1639.03,1673.32 1641.49,1673.78 1642.68,1674.45Z" style="fill:rgb(15,15,39);fill-rule:nonzero;"/>
        </g>
        <g transform="matrix(4.16667,0,0,4.16667,0,0)">
            <path d="M1772.02,1720.29C1772.02,1720.29 1768.82,1721.93 1765.23,1722.9C1761.65,1723.87 1763.16,1725.76 1767.5,1725.19C1771.83,1724.63 1776.17,1723.14 1775.23,1721.52C1774.29,1719.91 1772.02,1720.29 1772.02,1720.29Z" style="fill:rgb(15,15,39);fill-rule:nonzero;"/>
        </g>
        <g transform="matrix(4.16667,0,0,4.16667,0,0)">
            <path d="M1756.07,1723.68C1755.8,1723.5 1753.72,1723.51 1751.08,1725.3C1748.44,1727.08 1745.05,1726.06 1747.12,1727.32C1749.2,1728.59 1752.76,1728.06 1756.07,1726.44C1759.38,1724.82 1756.07,1723.68 1756.07,1723.68Z" style="fill:rgb(15,15,39);fill-rule:nonzero;"/>
        </g>
        <g transform="matrix(4.16667,0,0,4.16667,0,0)">
            <path d="M1751.08,1747.26C1751.08,1747.26 1748.63,1747.83 1745.8,1747.26C1742.97,1746.7 1743.14,1749.15 1745.13,1750.09C1747.12,1751.04 1748.44,1751.79 1751.08,1751.6C1753.72,1751.42 1754.12,1747.02 1751.08,1747.26Z" style="fill:rgb(15,15,39);fill-rule:nonzero;"/>
        </g>
        <g transform="matrix(4.16667,0,0,4.16667,0,0)">
            <path d="M1738.82,1746.13C1738.25,1745.94 1737.5,1744.81 1734.67,1744.25C1731.84,1743.68 1730.14,1744.43 1732.78,1746.13C1735.43,1747.83 1736.75,1750.31 1738.82,1749.26C1740.9,1748.21 1738.82,1746.13 1738.82,1746.13Z" style="fill:rgb(15,15,39);fill-rule:nonzero;"/>
        </g>
        <g transform="matrix(4.16667,0,0,4.16667,0,0)">
            <path d="M1471.07,1532.27C1471.07,1532.27 1506.79,1522.84 1517.86,1563.15L1511.07,1558.43C1511.07,1558.43 1500.25,1558.93 1492.7,1553.9C1492.7,1553.9 1496.48,1562.96 1504.02,1568.49C1504.02,1568.49 1487.92,1567.74 1480.13,1558.93C1480.13,1558.93 1487.16,1560.7 1491.7,1560.44C1491.7,1560.44 1482.39,1552.4 1483.15,1537.3C1483.15,1537.3 1479.62,1533.53 1471.07,1532.27Z" style="fill:rgb(15,15,39);fill-rule:nonzero;"/>
        </g>
        <g transform="matrix(4.16667,0,0,4.16667,0,0)">
            <path d="M1674.56,1781.03C1674.56,1781.03 1680.09,1787.45 1678.08,1793.73C1676.07,1800.02 1672.17,1804.93 1672.54,1812.16C1672.92,1819.39 1675.52,1820.52 1675.52,1820.52C1675.52,1820.52 1669.78,1821.89 1665.38,1820.01C1660.97,1818.13 1662.48,1813.6 1662.48,1813.6C1662.48,1813.6 1665.83,1809.96 1667.86,1799.9C1669.9,1789.83 1668.32,1786.06 1668.32,1786.06L1674.56,1781.03Z" style="fill:rgb(240,76,89);fill-rule:nonzero;"/>
        </g>
        <g transform="matrix(4.16667,0,0,4.16667,0,0)">
            <path d="M1652.3,1798.39C1652.3,1798.39 1648.27,1805.56 1650.41,1812.85C1652.55,1820.14 1659.76,1821 1659.76,1821C1659.76,1821 1654.69,1817.5 1653.55,1814.48C1653.55,1814.48 1658.33,1820.52 1665.12,1821.53C1665.12,1821.53 1658.84,1818.38 1656.45,1812.85C1654.06,1807.32 1656.07,1799.39 1656.07,1799.39C1656.07,1799.39 1653.55,1804.05 1653.43,1808.07C1653.43,1808.07 1651.43,1802.16 1655.32,1795.62C1655.32,1795.62 1653.08,1796.71 1652.3,1798.39Z" style="fill:rgb(240,76,89);fill-rule:nonzero;"/>
        </g>
        <g transform="matrix(4.16667,0,0,4.16667,0,0)">
            <path d="M1497.99,1754.34C1497.99,1754.34 1508.93,1753.96 1521.31,1749.26C1533.7,1744.56 1537.22,1740.79 1537.22,1740.79C1537.22,1740.79 1531.3,1747.13 1523.32,1751.63C1523.32,1751.63 1529.57,1750.68 1535.84,1746.79C1535.84,1746.79 1531.41,1753.62 1517.59,1759.15C1517.59,1759.15 1525.4,1758.45 1535.84,1751.63C1535.84,1751.63 1531.19,1759.15 1517.6,1764.81C1504.02,1770.47 1488.11,1767.39 1488.11,1767.39C1488.11,1767.39 1498.84,1768.43 1510.01,1763.42C1510.01,1763.42 1494.46,1767.2 1484.91,1764.81C1484.91,1764.81 1499.65,1764.43 1510.01,1759.65C1510.01,1759.65 1497.51,1761.01 1490.19,1759.9C1490.19,1759.9 1502.33,1759.62 1512.83,1755.63C1512.83,1755.63 1503.64,1756.07 1497.99,1754.34Z" style="fill:white;fill-rule:nonzero;"/>
        </g>
        <g transform="matrix(4.16667,0,0,4.16667,0,0)">
            <path d="M1709.39,1736.51C1715.97,1724.56 1723.01,1712.29 1724.53,1707.93C1722.62,1707.44 1702.21,1695.5 1686.57,1675.58C1686.57,1675.58 1720.07,1703.66 1728.24,1703.66C1728.39,1703.66 1728.54,1703.65 1728.68,1703.63C1752.18,1700.04 1767.19,1688.1 1767.19,1688.1C1767.19,1688.1 1760.33,1701.16 1744.29,1712.8C1744.29,1712.8 1750.68,1706.66 1755.12,1699.02C1755.12,1699.02 1743.65,1706.05 1727.57,1708.38C1720.36,1724.76 1709.39,1736.51 1709.39,1736.51Z" style="fill:rgb(87,47,66);fill-rule:nonzero;"/>
        </g>
        <g transform="matrix(4.16667,0,0,4.16667,0,0)">
            <path d="M1730.28,1689.78C1729.74,1689.78 1729.21,1689.76 1728.68,1689.73C1717.4,1688.97 1688.01,1662.56 1688.01,1662.56C1698.95,1662.56 1707.31,1658.04 1706,1646.72C1704.69,1635.4 1693.92,1633.76 1693.92,1633.76C1696.11,1632.41 1698.69,1631.69 1701.79,1631.69C1704.76,1631.69 1708.2,1632.35 1712.23,1633.76C1720.47,1636.66 1716.31,1637.41 1722.05,1639.7C1723.21,1640.16 1724.26,1640.34 1725.2,1640.34C1726.91,1640.34 1728.28,1639.75 1729.43,1639.16C1730.57,1638.56 1731.48,1637.97 1732.26,1637.97C1732.4,1637.97 1732.53,1637.99 1732.66,1638.03C1734.67,1638.64 1737.44,1643.51 1737.44,1643.51C1733.41,1645.08 1728.68,1650.99 1728.68,1650.99C1733.25,1648.48 1739.74,1647.22 1739.74,1647.22C1740.04,1649.48 1743.65,1656.02 1743.65,1656.02C1735.28,1657.53 1729.89,1662.56 1729.89,1662.56C1733.99,1660.8 1738.95,1660.43 1742.37,1660.43C1744.82,1660.43 1746.48,1660.62 1746.48,1660.62C1749.23,1663.21 1757.56,1673.88 1755.87,1678.41C1754.25,1682.72 1741.26,1689.78 1730.28,1689.78Z" style="fill:rgb(199,204,206);fill-rule:nonzero;"/>
        </g>
    </g>
</svg>
